<svg width="55" height="48" viewBox="0 0 55 48" fill="none" xmlns="http://www.w3.org/2000/svg">
<path d="M13.212 30.184H14.562V43H12.06V35.8L8.37 40.804H7.416L3.708 35.836V43H1.224V30.184H2.556L7.902 37.438L13.212 30.184ZM16.9916 43V30.238H26.2616V32.542H19.4576V35.62H25.1816V37.798H19.4576V40.714H26.5496V43H16.9916ZM37.3278 30.238H39.8478V43.072H38.5338L30.9198 34.972V43H28.3998V30.166H29.6778L37.3278 38.266V30.238ZM47.6505 43.252C45.8385 43.252 44.4645 42.808 43.5285 41.92C42.6045 41.032 42.1425 39.712 42.1425 37.96V30.238H44.7165V37.348C44.7165 38.572 44.9505 39.46 45.4185 40.012C45.8865 40.552 46.6305 40.822 47.6505 40.822C48.6705 40.822 49.4145 40.552 49.8825 40.012C50.3625 39.46 50.6025 38.572 50.6025 37.348V30.238H53.1585V37.96C53.1585 41.488 51.3225 43.252 47.6505 43.252Z" fill="white"/>
<rect width="54.8571" height="3.42857" fill="white"/>
<rect y="10.2856" width="54.8571" height="3.42857" fill="white"/>
<rect y="20.5703" width="32.5714" height="3.42857" fill="white"/>
</svg>
