<svg width="40" height="17" viewBox="0 0 40 17" fill="none" xmlns="http://www.w3.org/2000/svg">
<path d="M1.17188 2.24711H3.94226C5.41125 0.855078 7.39383 0 9.5725 0C12.1363 0 14.4284 1.18422 15.9316 3.03406C18.3033 1.15547 21.6928 1.15227 24.0686 3.03406C25.5718 1.18422 27.8638 0 30.4277 0C32.6063 0 34.5889 0.855156 36.0579 2.24711H38.8281C39.4753 2.24711 40 2.7718 40 3.41898C40 4.06617 39.4753 4.59086 38.8281 4.59086H37.7841C38.3184 5.67828 38.6192 6.90039 38.6192 8.19164C38.6192 12.7085 34.9445 16.3833 30.4276 16.3833C25.9107 16.3833 22.2359 12.7085 22.2359 8.19164C22.2359 7.08922 22.4554 6.03719 22.852 5.07625C21.2448 3.59938 18.7573 3.59734 17.148 5.07625C17.5446 6.03719 17.764 7.08922 17.764 8.19164C17.764 12.7085 14.0892 16.3833 9.57234 16.3833C5.05547 16.3833 1.3807 12.7085 1.3807 8.19164C1.3807 6.90039 1.68141 5.67828 2.21586 4.59086H1.17188C0.524689 4.59086 0 4.06617 0 3.41898C0 2.7718 0.524689 2.24711 1.17188 2.24711ZM30.4276 14.0395C33.6521 14.0395 36.2755 11.4162 36.2755 8.19164C36.2755 4.96711 33.6521 2.34375 30.4276 2.34375C27.203 2.34375 24.5797 4.96711 24.5797 8.19164C24.5797 11.4162 27.203 14.0395 30.4276 14.0395ZM9.57242 14.0395C12.797 14.0395 15.4203 11.4162 15.4203 8.19164C15.4203 4.96711 12.797 2.34375 9.57242 2.34375C6.34789 2.34375 3.72453 4.96711 3.72453 8.19164C3.72453 11.4162 6.34789 14.0395 9.57242 14.0395Z" fill="white"/>
</svg>
