<svg width="124" height="85" viewBox="0 0 124 85" fill="none" xmlns="http://www.w3.org/2000/svg">
<path d="M2.92449 21.6665C3.01883 21.6665 3.11317 21.6665 3.23896 21.698C3.36474 21.698 3.49052 21.7294 3.58486 21.7608C3.71065 21.7923 3.83643 21.7923 3.93077 21.8237C4.05656 21.8552 4.15089 21.8552 4.24523 21.8866C4.27668 21.8866 4.27668 21.9181 4.27668 21.9181V23.0816C4.27668 23.113 4.27668 23.113 4.24523 23.113H3.93077H3.89932C3.89932 23.113 3.89932 23.113 3.89932 23.0816L3.74209 22.2011C3.74209 22.2011 3.74209 22.1696 3.71065 22.1696C3.6792 22.1696 3.61631 22.1382 3.52197 22.1382C3.45908 22.1068 3.36474 22.1068 3.30185 22.0753C3.23896 22.0439 3.14462 22.0439 3.08172 22.0439C2.98739 22.0439 2.92449 22.0439 2.8616 22.0439C2.51569 22.0439 2.20123 22.1068 1.94966 22.2011C1.66665 22.2954 1.44652 22.4527 1.25785 22.6413C1.06917 22.83 0.943384 23.0816 0.849046 23.3332C0.754707 23.6162 0.691815 23.8992 0.691815 24.2451C0.691815 24.591 0.754707 24.9055 0.849046 25.2199C0.943384 25.5344 1.10062 25.786 1.28929 26.0375C1.47797 26.2891 1.69809 26.4463 1.98111 26.6036C2.23268 26.7293 2.54714 26.7922 2.8616 26.7922C2.92449 26.7922 2.98739 26.7922 3.08172 26.7922C3.17606 26.7922 3.23895 26.7922 3.33329 26.7608C3.42763 26.7608 3.49052 26.7293 3.58486 26.7293C3.6792 26.7293 3.74209 26.6979 3.77354 26.6664C3.80499 26.6664 3.80499 26.635 3.80499 26.635L3.96222 25.7545C3.96222 25.7545 3.96222 25.7545 3.96222 25.7231C3.96222 25.6916 3.99366 25.7231 3.99366 25.7231H4.30812C4.33957 25.7231 4.33957 25.7231 4.33957 25.7545V26.918C4.33957 26.918 4.33957 26.9495 4.30812 26.9495C4.21379 26.9809 4.11945 26.9809 4.02511 27.0124C3.93077 27.0438 3.80499 27.0438 3.6792 27.0752C3.55342 27.1067 3.42763 27.1067 3.2704 27.1381C3.11317 27.1381 2.98739 27.1696 2.79871 27.1696C2.51569 27.1696 2.26412 27.1381 2.01255 27.0752C1.76098 27.0124 1.54086 26.918 1.32074 26.7922C1.10061 26.6664 0.911938 26.5407 0.754707 26.3834C0.597476 26.2262 0.440246 26.0375 0.345907 25.8488C0.220123 25.6602 0.157231 25.44 0.0943383 25.1885C0.0314459 24.9369 0 24.7168 0 24.4652C0 24.1822 0.0314459 23.8992 0.0943383 23.6476C0.157231 23.396 0.283015 23.1759 0.4088 22.9558C0.534585 22.7357 0.691815 22.5784 0.880492 22.4212C1.06917 22.264 1.25785 22.1382 1.47797 22.0439C1.69809 21.9495 1.91822 21.8552 2.16978 21.7923C2.38991 21.698 2.67292 21.6665 2.92449 21.6665Z" fill="white"/>
<path d="M8.11616 27.0438C8.08471 27.0438 8.08471 27.0438 8.08471 27.0124V26.7922C8.08471 26.7608 8.08471 26.7608 8.11616 26.7608L8.71363 26.6979H8.74508V26.6664L8.17905 25.1256L8.1476 25.0941H6.44951C6.44951 25.0941 6.41806 25.0941 6.41806 25.1256L5.78914 26.6664C5.78914 26.6979 5.78914 26.7293 5.82059 26.7293L6.41806 26.7608C6.44951 26.7608 6.44951 26.7922 6.44951 26.7922V26.9809C6.44951 27.0124 6.44951 27.0124 6.41806 27.0124H4.75142C4.71997 27.0124 4.71997 27.0124 4.71997 26.9809V26.7922C4.71997 26.7608 4.71997 26.7608 4.75142 26.7608L5.38034 26.6979C5.38034 26.6979 5.41179 26.6979 5.41179 26.6664L7.3929 21.698L7.42434 21.6665H7.61302C7.61302 21.6665 7.64446 21.6665 7.64446 21.698L9.46834 26.6664L9.49979 26.6979L10.1287 26.7608C10.1602 26.7608 10.1602 26.7608 10.1602 26.7922V26.9809C10.1602 27.0124 10.1602 27.0124 10.1287 27.0124H8.11616V27.0438ZM7.36145 22.83C7.33 22.83 7.33 22.83 7.36145 22.83C7.33 22.7986 7.29856 22.83 7.29856 22.83L6.57529 24.6853C6.57529 24.7168 6.57529 24.7482 6.60674 24.7482H8.02182C8.05326 24.7482 8.08471 24.7168 8.05326 24.6853L7.36145 22.83Z" fill="white"/>
<path d="M12.0397 21.7935C12.0712 21.7935 12.0712 21.7935 12.0397 21.7935L13.7378 25.9129L15.4045 21.8249C15.4045 21.8249 15.4045 21.7935 15.4359 21.7935H16.9768C17.0082 21.7935 17.0082 21.7935 17.0082 21.8249V22.0136C17.0082 22.045 17.0082 22.045 16.9768 22.045L16.3164 22.1079C16.285 22.1079 16.285 22.1079 16.285 22.1394V26.6047C16.285 26.6362 16.285 26.6362 16.3164 26.6362L17.0082 26.6991C17.0397 26.6991 17.0397 26.7305 17.0397 26.7305V26.9192C17.0397 26.9506 17.0397 26.9506 17.0082 26.9506H14.807C14.7756 26.9506 14.7756 26.9506 14.7756 26.9192V26.7934C14.7756 26.762 14.7756 26.762 14.807 26.762L15.5303 26.6991C15.5617 26.6991 15.5617 26.6991 15.5617 26.6676V22.3595H15.5303L13.612 27.1079H13.5806H13.4863C13.4548 27.1079 13.4548 27.1079 13.4548 27.1079L11.568 22.3909H11.5366V26.6676C11.5366 26.6991 11.5366 26.6991 11.568 26.6991L12.2284 26.762C12.2599 26.762 12.2599 26.762 12.2599 26.7934V26.9821C12.2599 27.0135 12.2599 27.0135 12.2284 27.0135H10.436C10.4045 27.0135 10.4045 27.0135 10.4045 26.9821V26.7934C10.4045 26.762 10.4045 26.762 10.436 26.762L11.1278 26.6991C11.1593 26.6991 11.1592 26.6991 11.1592 26.6676V22.2023C11.1592 22.1708 11.1593 22.1708 11.1278 22.1708L10.4674 22.1079C10.436 22.1079 10.436 22.1079 10.436 22.0765V21.8878C10.436 21.8564 10.436 21.8564 10.4674 21.8564H12.0397V21.7935Z" fill="white"/>
<path d="M20.6608 27.0438C20.6293 27.0438 20.6293 27.0438 20.6293 27.0124V26.7922C20.6293 26.7608 20.6293 26.7608 20.6608 26.7608L21.2583 26.6979H21.2897V26.6664L20.7237 25.1256L20.6922 25.0941H18.9941C18.9941 25.0941 18.9627 25.0941 18.9627 25.1256L18.3338 26.6664C18.3338 26.6979 18.3338 26.7293 18.3652 26.7293L18.9627 26.7608C18.9941 26.7608 18.9941 26.7922 18.9941 26.7922V26.9809C18.9941 27.0124 18.9941 27.0124 18.9627 27.0124H17.2646C17.2332 27.0124 17.2332 27.0124 17.2332 26.9809V26.7922C17.2332 26.7608 17.2332 26.7608 17.2646 26.7608L17.8935 26.6979C17.8935 26.6979 17.925 26.6979 17.925 26.6664L19.9061 21.698L19.9375 21.6665H20.1262C20.1262 21.6665 20.1576 21.6665 20.1576 21.698L21.9815 26.6664L22.013 26.6979L22.6419 26.7608C22.6733 26.7608 22.6733 26.7608 22.6733 26.7922V26.9809C22.6733 27.0124 22.6733 27.0124 22.6419 27.0124H20.6608V27.0438ZM19.9061 22.83C19.8746 22.83 19.8746 22.83 19.9061 22.83C19.8746 22.7986 19.8432 22.83 19.8432 22.83L19.1199 24.6853C19.1199 24.7168 19.1199 24.7482 19.1514 24.7482H20.5664C20.5979 24.7482 20.6293 24.7168 20.5979 24.6853L19.9061 22.83Z" fill="white"/>
<path d="M25.0341 21.7935C25.5372 21.7935 25.9146 21.8249 26.1661 21.9192C26.7951 22.1394 27.141 22.5796 27.141 23.2714C27.141 23.7431 26.9209 24.1205 26.5121 24.4035C26.1347 24.6551 25.7259 24.7808 25.2542 24.8123L24.4995 24.6865V26.6676C24.4995 26.6991 24.4995 26.6991 24.5309 26.6991L25.2542 26.762C25.2857 26.762 25.2857 26.7934 25.2857 26.7934V26.9821C25.2857 27.0135 25.2857 27.0135 25.2542 27.0135H23.0844C23.053 27.0135 23.053 27.0135 23.053 26.9821V26.7934C23.053 26.762 23.053 26.762 23.0844 26.762L23.7448 26.6991C23.7762 26.6991 23.7762 26.6991 23.7762 26.6676V22.2023C23.7762 22.1708 23.7762 22.1708 23.7448 22.1708L23.0844 22.1079C23.053 22.1079 23.053 22.1079 23.053 22.0765V21.8878C23.053 21.8564 23.053 21.8564 23.0844 21.8564H25.0341V21.7935ZM24.5309 22.1394C24.4995 22.1394 24.4995 22.1394 24.4995 22.1708V24.372C24.4995 24.4035 24.4995 24.4035 24.5309 24.4035H24.9712C25.8831 24.4035 26.3548 23.9947 26.3548 23.2085C26.3548 22.8312 26.1976 22.5482 25.9146 22.3595C25.663 22.2023 25.3171 22.1394 24.9083 22.1394H24.5309Z" fill="white"/>
<path d="M30.6276 21.6665C30.722 21.6665 30.8163 21.6665 30.9421 21.698C31.0679 21.698 31.1936 21.7294 31.288 21.7608C31.4138 21.7923 31.5396 21.7923 31.6339 21.8237C31.7597 21.8552 31.854 21.8552 31.9484 21.8866C31.9798 21.8866 31.9798 21.9181 31.9798 21.9181V23.0816C31.9798 23.113 31.9798 23.113 31.9484 23.113H31.6339H31.6024C31.6024 23.113 31.6024 23.113 31.6024 23.0816L31.4452 22.2011C31.4452 22.2011 31.4452 22.1696 31.4138 22.1696C31.3823 22.1696 31.3194 22.1382 31.2251 22.1382C31.1622 22.1068 31.0679 22.1068 31.005 22.0753C30.9421 22.0439 30.8477 22.0439 30.7849 22.0439C30.6905 22.0439 30.6276 22.0439 30.5647 22.0439C30.2188 22.0439 29.9044 22.1068 29.6528 22.2011C29.3698 22.2954 29.1496 22.4527 28.961 22.6413C28.7723 22.83 28.6465 23.0816 28.5522 23.3332C28.4578 23.6162 28.3949 23.8992 28.3949 24.2451C28.3949 24.591 28.4578 24.9055 28.5522 25.2199C28.6465 25.5344 28.8037 25.786 28.9924 26.0375C29.1811 26.2576 29.4012 26.4463 29.6842 26.6036C29.9358 26.7293 30.2503 26.7922 30.5647 26.7922C30.6276 26.7922 30.6905 26.7922 30.7849 26.7922C30.8792 26.7922 30.9421 26.7922 31.0364 26.7608C31.1308 26.7608 31.1936 26.7293 31.288 26.7293C31.3509 26.7293 31.4452 26.6979 31.4767 26.6664C31.5081 26.6664 31.5081 26.635 31.5081 26.635L31.6653 25.7545C31.6653 25.7545 31.6653 25.7545 31.6653 25.7231H31.6968H32.0113C32.0427 25.7231 32.0427 25.7231 32.0427 25.7545V26.918C32.0427 26.918 32.0427 26.9495 32.0113 26.9495C31.9169 26.9809 31.8226 26.9809 31.7282 27.0124C31.6339 27.0438 31.5081 27.0438 31.3823 27.0752C31.2565 27.1067 31.1308 27.1067 30.9735 27.1381C30.8163 27.1381 30.6905 27.1696 30.5018 27.1696C30.2188 27.1696 29.9672 27.1381 29.7157 27.0752C29.4641 27.0124 29.244 26.918 29.0239 26.7922C28.8037 26.6664 28.6151 26.5407 28.4578 26.3834C28.3006 26.2262 28.1434 26.0375 28.049 25.8488C27.9233 25.6602 27.8604 25.44 27.7975 25.1885C27.7346 24.9369 27.7031 24.7168 27.7031 24.4652C27.7031 24.1822 27.7346 23.8992 27.7975 23.6476C27.8604 23.396 27.9861 23.1759 28.1119 22.9558C28.2377 22.7357 28.3949 22.5784 28.5836 22.4212C28.7723 22.264 28.961 22.1382 29.1811 22.0439C29.4012 21.9495 29.6213 21.8552 29.8729 21.7923C30.093 21.698 30.3446 21.6665 30.6276 21.6665Z" fill="white"/>
<path d="M34.81 21.7923C34.8415 21.7923 34.8415 21.7923 34.8415 21.8237V22.0124C34.8415 22.0439 34.8415 22.0439 34.81 22.0439L34.1497 22.1068C34.1182 22.1068 34.1182 22.1068 34.1182 22.1382V24.0879C34.1182 24.1193 34.1182 24.1193 34.1497 24.1193C34.3069 24.1193 34.4641 24.0879 34.5899 24.0564C34.7157 24.025 34.8415 23.9621 34.9358 23.8992C35.0301 23.8363 35.1245 23.742 35.2188 23.6162C35.3132 23.4904 35.3761 23.3646 35.4389 23.2388L35.8163 22.4527C35.8792 22.2954 35.9735 22.1696 36.0364 22.0753C36.0993 21.981 36.1937 21.8866 36.2565 21.8237C36.3509 21.7608 36.4138 21.698 36.5081 21.698C36.6025 21.6665 36.6968 21.6665 36.7911 21.6665C36.8226 21.6665 36.854 21.6665 36.9169 21.6665C36.9798 21.6665 37.0113 21.698 37.0741 21.698C37.137 21.7294 37.1685 21.7294 37.1999 21.7608C37.2314 21.7923 37.2943 21.8237 37.3257 21.8552C37.3257 21.8552 37.3257 21.8866 37.3572 21.8866C37.3572 21.9181 37.3572 21.9181 37.3572 21.9181L36.9798 22.4527L36.9484 22.4841H36.9169C36.854 22.4212 36.8226 22.3898 36.7597 22.3583C36.6968 22.3269 36.6653 22.2954 36.6025 22.2954C36.5396 22.2954 36.4452 22.3269 36.3509 22.3898C36.2565 22.4527 36.1937 22.5784 36.0993 22.7357L35.9106 23.1445C35.8477 23.2703 35.7849 23.396 35.722 23.4904C35.6591 23.6162 35.5962 23.7105 35.5018 23.8048C35.4389 23.8992 35.3446 23.9935 35.2817 24.0564C35.2188 24.1193 35.1245 24.1822 35.0616 24.2136C35.1559 24.2451 35.2503 24.2765 35.376 24.3394C35.4704 24.3709 35.5647 24.4652 35.6591 24.5281C35.7534 24.6224 35.8477 24.7168 35.9106 24.8111C36.005 24.9369 36.0679 25.0627 36.1622 25.2199L36.8855 26.6036C36.8855 26.635 36.9169 26.635 36.9484 26.635L37.5144 26.6979C37.5458 26.6979 37.5458 26.6979 37.5458 26.7293V26.918C37.5458 26.9495 37.5458 26.9495 37.5144 26.9495H36.288C36.2565 26.9495 36.2565 26.9495 36.2251 26.918L35.5333 25.4086C35.4389 25.1885 35.3132 24.9998 35.1874 24.874C35.0616 24.7482 34.9672 24.6224 34.8415 24.5596C34.7157 24.4967 34.6213 24.4338 34.4956 24.4338C34.3698 24.4023 34.2754 24.4023 34.1811 24.4023C34.1497 24.4023 34.1497 24.4023 34.1497 24.4338V26.5721C34.1497 26.6036 34.1497 26.6036 34.1811 26.6036L34.8415 26.6664C34.8729 26.6664 34.8729 26.6664 34.8729 26.6979V26.8866C34.8729 26.918 34.8729 26.918 34.8415 26.918H32.7346C32.7031 26.918 32.7031 26.918 32.7031 26.8866V26.7922C32.7031 26.7608 32.7031 26.7608 32.7346 26.7608L33.3949 26.6979C33.4264 26.6979 33.4264 26.6979 33.4264 26.6664V22.2011C33.4264 22.1696 33.4264 22.1696 33.3949 22.1696L32.7346 22.0753C32.7031 22.0753 32.7031 22.0753 32.7031 22.0439V21.8552C32.7031 21.8237 32.7031 21.8237 32.7346 21.8237H34.81V21.7923Z" fill="white"/>
<path d="M39.9981 21.7935C40.0295 21.7935 40.0295 21.7935 40.0295 21.8249V22.0136C40.0295 22.045 40.0295 22.045 39.9981 22.045L39.3692 22.1079C39.3377 22.1079 39.3377 22.1079 39.3377 22.1394V25.6299L41.9163 22.4853L41.9478 22.4538V22.1708C41.9478 22.1394 41.9478 22.1394 41.9163 22.1394L41.2874 22.0765C41.2559 22.0765 41.2559 22.0765 41.2559 22.045V21.8564C41.2559 21.8249 41.2559 21.8249 41.2874 21.8249H43.3314C43.3628 21.8249 43.3628 21.8249 43.3628 21.8564V22.045C43.3628 22.0765 43.3628 22.0765 43.3314 22.0765L42.671 22.1394C42.6396 22.1394 42.6396 22.1394 42.6396 22.1708V26.6362C42.6396 26.6676 42.6396 26.6676 42.671 26.6676L43.3314 26.7305C43.3628 26.7305 43.3628 26.7305 43.3628 26.762V26.9506C43.3628 26.9821 43.3628 26.9821 43.3314 26.9821H41.2874C41.2559 26.9821 41.2559 26.9821 41.2559 26.9506V26.7934C41.2559 26.762 41.2559 26.762 41.2874 26.762L41.9163 26.6991C41.9478 26.6991 41.9478 26.6991 41.9478 26.6676V23.0827L39.3692 26.2274V26.2588V26.6362C39.3692 26.6676 39.3692 26.6676 39.4006 26.6676L40.0295 26.7305C40.061 26.7305 40.061 26.7305 40.061 26.762V26.9506C40.061 26.9821 40.061 26.9821 40.0295 26.9821H37.9855C37.9541 26.9821 37.9541 26.9821 37.9541 26.9506V26.7934C37.9541 26.762 37.9541 26.762 37.9855 26.762L38.6459 26.6991C38.6774 26.6991 38.6774 26.6991 38.6774 26.6676V22.2023C38.6774 22.1708 38.6774 22.1708 38.6459 22.1708L37.9855 22.1079C37.9541 22.1079 37.9541 22.1079 37.9541 22.0765V21.8878C37.9541 21.8564 37.9541 21.8564 37.9855 21.8564H39.9981V21.7935Z" fill="white"/>
<path d="M46.0086 21.7919C46.04 21.7919 46.04 21.7919 46.04 21.8234V22.0121C46.04 22.0435 46.04 22.0435 46.0086 22.0435L45.3797 22.1064C45.3482 22.1064 45.3482 22.1064 45.3482 22.1378V25.6284L47.9268 22.4838L47.9583 22.4523V22.1693C47.9583 22.1378 47.9583 22.1378 47.9268 22.1378L47.2979 22.0749C47.2664 22.0749 47.2664 22.075 47.2664 22.0435V21.8548C47.2664 21.8234 47.2664 21.8234 47.2979 21.8234H49.3419C49.3733 21.8234 49.3733 21.8234 49.3733 21.8548V22.0435C49.3733 22.075 49.3733 22.0749 49.3419 22.0749L48.6815 22.1378C48.6501 22.1378 48.6501 22.1378 48.6501 22.1693V26.6346C48.6501 26.6661 48.6501 26.6661 48.6815 26.6661L49.3419 26.729C49.3733 26.729 49.3733 26.729 49.3733 26.7604V26.9491C49.3733 26.9806 49.3733 26.9806 49.3419 26.9806H47.2979C47.2664 26.9806 47.2664 26.9806 47.2664 26.9491V26.7919C47.2664 26.7604 47.2664 26.7604 47.2979 26.7604L47.9268 26.6975C47.9583 26.6975 47.9583 26.6975 47.9583 26.6661V23.0812L45.3797 26.2258V26.2573V26.6346C45.3797 26.6661 45.3797 26.6661 45.4111 26.6661L46.04 26.729C46.0715 26.729 46.0715 26.729 46.0715 26.7604V26.9491C46.0715 26.9806 46.0715 26.9806 46.04 26.9806H43.996C43.9646 26.9806 43.9646 26.9806 43.9646 26.9491V26.7919C43.9646 26.7604 43.9646 26.7604 43.996 26.7604L44.6564 26.6975C44.6879 26.6975 44.6879 26.6975 44.6879 26.6661V22.2007C44.6879 22.1693 44.6879 22.1693 44.6564 22.1693L43.996 22.1064C43.9646 22.1064 43.9646 22.1064 43.9646 22.0749V21.8863C43.9646 21.8548 43.9646 21.8548 43.996 21.8548H46.0086V21.7919ZM46.6375 21.0687C46.7319 21.0687 46.8262 21.0687 46.8891 21.0687C46.952 21.0687 47.0463 21.0372 47.0778 21.0372C47.1407 21.0058 47.1721 21.0058 47.2036 20.9743C47.235 20.9429 47.235 20.9114 47.235 20.8485C47.235 20.8171 47.235 20.7542 47.2036 20.7228C47.2036 20.6599 47.1721 20.6284 47.1721 20.5655C47.1721 20.4712 47.2036 20.4083 47.2664 20.3769C47.3293 20.314 47.3922 20.314 47.4866 20.314C47.5495 20.314 47.5809 20.314 47.6124 20.3454C47.6438 20.3769 47.7067 20.4083 47.7381 20.4398C47.7696 20.4712 47.801 20.5341 47.8325 20.5655C47.8639 20.6284 47.8639 20.6599 47.8639 20.7228C47.8639 20.8171 47.8325 20.9429 47.7696 21.0058C47.7067 21.1001 47.6124 21.163 47.518 21.2259C47.3922 21.2888 47.2664 21.3517 47.1092 21.3831C46.952 21.4146 46.7948 21.446 46.6061 21.446C46.4174 21.446 46.2287 21.4146 46.0715 21.3831C45.9143 21.3517 45.7885 21.2888 45.6627 21.2259C45.5369 21.163 45.474 21.0687 45.4111 21.0058C45.3482 20.9114 45.3168 20.8171 45.3168 20.7228C45.3168 20.6599 45.3168 20.597 45.3482 20.5655C45.3797 20.5026 45.4111 20.4712 45.4426 20.4398C45.474 20.4083 45.5055 20.3769 45.5684 20.3454C45.5998 20.314 45.6627 20.314 45.7256 20.314C45.8199 20.314 45.8828 20.3454 45.9457 20.3769C46.0086 20.4397 46.04 20.5026 46.04 20.5655C46.04 20.6284 46.04 20.6599 46.0086 20.7228C45.9772 20.7857 45.9772 20.8171 45.9772 20.8485C45.9772 20.9114 46.0086 20.9429 46.04 20.9743C46.0715 21.0058 46.1029 21.0372 46.1658 21.0372C46.2287 21.0687 46.2916 21.0687 46.3545 21.0687C46.4803 21.0372 46.5432 21.0687 46.6375 21.0687Z" fill="white"/>
<path d="M3.71065 33.9624C3.74209 33.9624 3.74209 33.9624 3.74209 33.9938V35.2202C3.74209 35.2517 3.74209 35.2517 3.71065 35.2517H3.42763H3.39619C3.39619 35.2517 3.39619 35.2517 3.39619 35.2202L3.23896 34.3398V34.3083H3.20751H1.44652C1.41508 34.3083 1.41508 34.3083 1.41508 34.3398V38.8051C1.41508 38.8366 1.41508 38.8366 1.44652 38.8366L2.10689 38.8994C2.13834 38.8994 2.13834 38.8995 2.13834 38.9309V39.1196C2.13834 39.151 2.13834 39.151 2.10689 39.151H0.0314457C-4.80299e-07 39.151 0 39.151 0 39.1196V38.9309C0 38.8995 -4.80299e-07 38.8994 0.0314457 38.8994L0.691815 38.8366C0.723261 38.8366 0.723262 38.8366 0.723262 38.8051V34.3398L0.0628914 34.2769C0.0314452 34.2769 0.0314457 34.2769 0.0314457 34.2454V34.0567C0.0314457 34.0253 0.0314452 34.0253 0.0628914 34.0253H3.71065V33.9624Z" fill="white"/>
<path d="M6.85388 33.8359C7.64003 33.8359 8.26896 34.0875 8.7721 34.6221C9.24379 35.1252 9.49536 35.7856 9.49536 36.5718C9.49536 37.3579 9.24379 38.0183 8.7721 38.5214C8.26896 39.056 7.64003 39.3076 6.88533 39.3076C6.09917 39.3076 5.47025 39.056 4.96711 38.5214C4.46397 38.0183 4.2124 37.3579 4.2124 36.5718C4.2124 35.7856 4.46397 35.1252 4.96711 34.6221C5.4388 34.119 6.06773 33.8359 6.85388 33.8359ZM6.75954 34.1818C6.16207 34.1818 5.72182 34.402 5.37591 34.8737C5.06145 35.2825 4.93566 35.7856 4.93566 36.3831C4.93566 36.8233 4.99856 37.2321 5.15579 37.578C5.31302 37.9868 5.56459 38.3013 5.87905 38.5529C6.19351 38.8044 6.57086 38.9302 6.94822 38.9302C7.5457 38.9302 7.98594 38.7101 8.30041 38.2384C8.58342 37.8296 8.7092 37.3265 8.7092 36.6975C8.7092 36.0057 8.55197 35.4397 8.20607 34.9366C7.82871 34.4649 7.35702 34.1818 6.75954 34.1818Z" fill="white"/>
<path d="M13.0204 33.8359C13.1148 33.8359 13.2091 33.8359 13.3349 33.8674C13.4607 33.8674 13.5865 33.8988 13.6808 33.9303C13.8066 33.9617 13.9324 33.9617 14.0267 33.9932C14.1525 34.0246 14.2468 34.0246 14.3412 34.0561C14.3726 34.0561 14.3726 34.0875 14.3726 34.0875V35.251C14.3726 35.2825 14.3726 35.2825 14.3412 35.2825H14.0267H13.9953C13.9953 35.2825 13.9953 35.2825 13.9953 35.251L13.838 34.3705C13.838 34.3705 13.838 34.3391 13.8066 34.3391C13.7752 34.3391 13.7123 34.3076 13.6179 34.3076C13.555 34.2762 13.4607 34.2762 13.3978 34.2447C13.3349 34.2133 13.2406 34.2133 13.1777 34.2133C13.0833 34.2133 13.0204 34.2133 12.9575 34.2133C12.6116 34.2133 12.2972 34.2762 12.0456 34.3705C11.7626 34.4649 11.5425 34.6221 11.3538 34.8108C11.1651 34.9994 11.0393 35.251 10.945 35.5026C10.8507 35.7856 10.7878 36.0686 10.7878 36.4145C10.7878 36.7604 10.8507 37.0749 10.945 37.3894C11.0393 37.7038 11.1966 37.9554 11.3852 38.207C11.5739 38.4271 11.794 38.6158 12.0771 38.773C12.3286 38.8988 12.6431 38.9617 12.9575 38.9617C13.0204 38.9617 13.0833 38.9617 13.1777 38.9617C13.272 38.9617 13.3349 38.9617 13.4292 38.9302C13.5236 38.9302 13.5865 38.8988 13.6808 38.8988C13.7437 38.8988 13.838 38.8673 13.8695 38.8359C13.9009 38.8359 13.9009 38.8044 13.9009 38.8044L14.0582 37.9239C14.0582 37.9239 14.0582 37.9239 14.0582 37.8925H14.0896H14.4041C14.4355 37.8925 14.4355 37.8925 14.4355 37.9239V39.0875C14.4355 39.0875 14.4355 39.1189 14.4041 39.1189C14.3097 39.1503 14.2154 39.1503 14.1211 39.1818C14.0267 39.2132 13.9009 39.2132 13.7751 39.2447C13.6494 39.2761 13.5236 39.2761 13.3663 39.3076C13.2091 39.3076 13.0833 39.339 12.8947 39.339C12.6116 39.339 12.3601 39.3076 12.1085 39.2447C11.8569 39.1818 11.6368 39.0874 11.4167 38.9617C11.1966 38.8359 11.0079 38.7101 10.8507 38.5529C10.6934 38.3956 10.5362 38.207 10.4419 38.0183C10.3161 37.8296 10.2532 37.6095 10.1903 37.3579C10.1274 37.1063 10.0959 36.8862 10.0959 36.6346C10.0959 36.3516 10.1274 36.0686 10.1903 35.817C10.2532 35.5655 10.379 35.3454 10.5047 35.1252C10.6305 34.9051 10.7878 34.7479 10.9764 34.5906C11.1651 34.4334 11.3538 34.3076 11.5739 34.2133C11.794 34.119 12.0142 34.0246 12.2657 33.9617C12.5173 33.8674 12.7689 33.8359 13.0204 33.8359Z" fill="white"/>
<path d="M17.1972 33.9638C17.2287 33.9638 17.2287 33.9638 17.2287 33.9952V34.1839C17.2287 34.2153 17.2287 34.2153 17.1972 34.2153L16.5997 34.2782H16.5683V34.3097L17.9834 37.1084L19.2098 34.2782V34.2468L19.1783 34.2153L18.5809 34.1524C18.5494 34.1524 18.5494 34.1524 18.5494 34.121V33.9323C18.5494 33.9009 18.5494 33.9009 18.5809 33.9009H20.279C20.3104 33.9009 20.3104 33.9009 20.3104 33.9323V34.121C20.3104 34.1524 20.3104 34.1524 20.279 34.1524L19.65 34.2153C19.65 34.2153 19.6186 34.2153 19.6186 34.2468L18.1406 37.643C18.0148 37.9574 17.8576 38.209 17.7318 38.4291C17.606 38.6492 17.4802 38.8065 17.3545 38.9323C17.2287 39.0581 17.1029 39.1524 16.9771 39.1838C16.8513 39.2153 16.7255 39.2467 16.5997 39.2467C16.474 39.2467 16.3482 39.2153 16.2538 39.1838C16.1281 39.1524 16.0652 39.0895 16.0023 38.9952C16.0023 38.9952 16.0023 38.9952 15.9708 38.9637C15.9394 38.9323 15.9708 38.9323 15.9708 38.9008L16.3482 38.3662C16.3482 38.3348 16.3796 38.3348 16.3796 38.3348C16.3796 38.3348 16.4111 38.3348 16.4111 38.3662C16.474 38.4291 16.5369 38.492 16.5997 38.5235C16.6626 38.5549 16.7255 38.5864 16.8199 38.5864C16.9771 38.5864 17.1343 38.5235 17.2601 38.3977C17.3859 38.2719 17.5117 38.1147 17.606 37.8945V37.8631V37.8317L15.7821 34.3411L15.7507 34.3097L15.1218 34.2468C15.0903 34.2468 15.0903 34.2468 15.0903 34.2153V34.0267C15.0903 33.9952 15.0903 33.9952 15.1218 33.9952H17.1972V33.9638Z" fill="white"/>
<path d="M24.909 38.8049C24.909 38.8364 24.909 38.8364 24.9404 38.8364H25.758H25.7894V38.8678V40.6288C25.7894 40.6602 25.7894 40.6602 25.758 40.6602H25.475C25.475 40.6602 25.475 40.6602 25.4435 40.6602C25.4435 40.6602 25.4121 40.6602 25.4121 40.6288L25.1605 39.2137V39.1823H25.1291H21.2298H21.1983C21.1983 39.1823 21.1983 39.1823 21.1983 39.2137L20.9467 40.6288V40.6602H20.9153H20.6323C20.6008 40.6602 20.6008 40.6602 20.6008 40.6288V38.8678V38.8364H20.6323H21.1983C21.1983 38.8364 21.2298 38.8364 21.2612 38.8049C21.5128 38.4905 21.7014 38.1445 21.8587 37.7672C22.0159 37.3898 22.1417 37.0125 22.236 36.6351C22.3304 36.2578 22.4247 35.849 22.4562 35.4716C22.519 35.0943 22.5505 34.7169 22.5505 34.3396C22.5505 34.3081 22.5505 34.3081 22.519 34.3081L21.7329 34.2452C21.7014 34.2452 21.7014 34.2452 21.7014 34.2138V34.0251C21.7014 33.9937 21.7014 33.9937 21.7329 33.9937H25.5693C25.6008 33.9937 25.6008 33.9937 25.6008 34.0251V34.2138C25.6008 34.2452 25.6008 34.2452 25.5693 34.2452L24.909 34.3081C24.8775 34.3081 24.8775 34.3081 24.8775 34.3396V38.8049H24.909ZM24.2171 34.3396C24.2171 34.3081 24.2171 34.3081 24.1857 34.3081H23.0222C22.9907 34.3081 22.9907 34.3081 22.9907 34.3396C22.9593 34.7169 22.9278 35.0628 22.8964 35.4716C22.8335 35.849 22.7706 36.2578 22.6763 36.6351C22.5819 37.0125 22.4562 37.3898 22.2989 37.7672C22.1417 38.1445 21.9845 38.4905 21.7643 38.8049V38.8364H21.7958H24.1857C24.2171 38.8364 24.2171 38.8364 24.2171 38.8049V34.3396Z" fill="white"/>
<path d="M29.3956 39.1818C29.3642 39.1818 29.3642 39.1818 29.3642 39.1503V38.9617C29.3642 38.9302 29.3642 38.9302 29.3956 38.9302L29.9931 38.8673H30.0246V38.8359L29.4585 37.295L29.4271 37.2636H27.729C27.729 37.2636 27.6976 37.2636 27.6976 37.295L27.0686 38.8359C27.0686 38.8673 27.0686 38.8988 27.1001 38.8988L27.6976 38.9302C27.729 38.9302 27.729 38.9617 27.729 38.9617V39.1503C27.729 39.1818 27.729 39.1818 27.6976 39.1818H25.9995C25.968 39.1818 25.968 39.1818 25.968 39.1503V38.9617C25.968 38.9302 25.968 38.9302 25.9995 38.9302L26.6284 38.8673C26.6284 38.8673 26.6598 38.8673 26.6598 38.8359L28.6409 33.8674L28.6724 33.8359H28.8611C28.8611 33.8359 28.8925 33.8359 28.8925 33.8674L30.7164 38.8359L30.7478 38.8673L31.3768 38.9302C31.4082 38.9302 31.4082 38.9302 31.4082 38.9617V39.1503C31.4082 39.1818 31.4082 39.1818 31.3768 39.1818H29.3956ZM28.6409 34.9994C28.6095 34.9994 28.6095 34.9994 28.6409 34.9994C28.6095 34.968 28.5781 34.9994 28.5781 34.9994L27.8548 36.8548C27.8548 36.8862 27.8548 36.9177 27.8862 36.9177H29.3013C29.3328 36.9177 29.3642 36.8862 29.3328 36.8548L28.6409 34.9994Z" fill="white"/>
<path d="M33.7697 33.9624C34.2728 33.9624 34.6502 33.9938 34.9017 34.0882C35.5307 34.3083 35.8766 34.7486 35.8766 35.4404C35.8766 35.9121 35.6565 36.2894 35.2477 36.5724C34.8703 36.824 34.4615 36.9498 33.9898 36.9812L33.2351 36.8554V38.8366C33.2351 38.868 33.2351 38.868 33.2665 38.868L33.9898 38.9309C34.0213 38.9309 34.0213 38.9623 34.0213 38.9623V39.151C34.0213 39.1825 34.0213 39.1825 33.9898 39.1825H31.82C31.7886 39.1825 31.7886 39.1825 31.7886 39.151V38.9623C31.7886 38.9309 31.7886 38.9309 31.82 38.9309L32.4804 38.868C32.5118 38.868 32.5118 38.868 32.5118 38.8366V34.3398C32.5118 34.3083 32.5118 34.3083 32.4804 34.3083L31.82 34.2454C31.7886 34.2454 31.7886 34.2454 31.7886 34.214V34.0253C31.7886 33.9938 31.7886 33.9938 31.82 33.9938H33.7697V33.9624ZM33.2665 34.3083C33.2351 34.3083 33.2351 34.3083 33.2351 34.3398V36.541C33.2351 36.5724 33.2351 36.5724 33.2665 36.5724H33.7068C34.6187 36.5724 35.0904 36.1636 35.0904 35.3775C35.0904 35.0001 34.9332 34.7171 34.6502 34.5284C34.3986 34.3712 34.0527 34.3083 33.6439 34.3083H33.2665Z" fill="white"/>
<path d="M39.3708 33.8359C39.4651 33.8359 39.5595 33.8359 39.6852 33.8674C39.811 33.8674 39.9368 33.8988 40.0312 33.9303C40.1569 33.9617 40.2827 33.9617 40.3771 33.9932C40.5028 34.0246 40.5972 34.0246 40.6915 34.0561C40.723 34.0561 40.723 34.0875 40.723 34.0875V35.251C40.723 35.2825 40.723 35.2825 40.6915 35.2825H40.3771H40.3456C40.3456 35.2825 40.3456 35.2825 40.3456 35.251L40.1884 34.3705C40.1884 34.3705 40.1884 34.3391 40.1569 34.3391C40.1255 34.3391 40.0626 34.3076 39.9683 34.3076C39.9054 34.2762 39.811 34.2762 39.7481 34.2447C39.6852 34.2133 39.5909 34.2133 39.528 34.2133C39.4337 34.2133 39.3708 34.2133 39.3079 34.2133C38.962 34.2133 38.6475 34.2762 38.396 34.3705C38.1129 34.4649 37.8928 34.6221 37.7041 34.8108C37.5155 34.9994 37.3897 35.251 37.2953 35.5026C37.201 35.7856 37.1381 36.0686 37.1381 36.4145C37.1381 36.7604 37.201 37.0749 37.2953 37.3894C37.3897 37.7038 37.5469 37.9554 37.7356 38.207C37.9243 38.4271 38.1444 38.6158 38.4274 38.773C38.679 38.8988 38.9934 38.9617 39.3079 38.9617C39.3708 38.9617 39.4337 38.9617 39.528 38.9617C39.6224 38.9617 39.6852 38.9617 39.7796 38.9302C39.8739 38.9302 39.9368 38.8988 40.0312 38.8988C40.094 38.8988 40.1884 38.8673 40.2198 38.8359C40.2513 38.8359 40.2513 38.8044 40.2513 38.8044L40.4085 37.9239C40.4085 37.9239 40.4085 37.9239 40.4085 37.8925H40.44H40.7544C40.7859 37.8925 40.7859 37.8925 40.7859 37.9239V39.0875C40.7859 39.0875 40.7859 39.1189 40.7544 39.1189C40.6601 39.1503 40.5657 39.1503 40.4714 39.1818C40.3771 39.2132 40.2513 39.2132 40.1255 39.2447C39.9997 39.2761 39.8739 39.2761 39.7167 39.3076C39.5595 39.3076 39.4337 39.339 39.245 39.339C38.962 39.339 38.7104 39.3076 38.4588 39.2447C38.2073 39.1818 37.9872 39.0874 37.767 38.9617C37.5469 38.8359 37.3582 38.7101 37.201 38.5529C37.0438 38.3956 36.8865 38.207 36.7922 38.0183C36.6664 37.8296 36.6035 37.6095 36.5406 37.3579C36.4777 37.1063 36.4463 36.8862 36.4463 36.6346C36.4463 36.3516 36.4777 36.0686 36.5406 35.817C36.6035 35.5655 36.7293 35.3454 36.8551 35.1252C36.9809 34.9051 37.1381 34.7479 37.3268 34.5906C37.5155 34.4334 37.7041 34.3076 37.9243 34.2133C38.1444 34.119 38.3645 34.0246 38.6161 33.9617C38.8362 33.8674 39.0878 33.8359 39.3708 33.8359Z" fill="white"/>
<path d="M45.6264 33.9624C45.6579 33.9624 45.6579 33.9624 45.6579 33.9938V35.2202C45.6579 35.2517 45.6579 35.2517 45.6264 35.2517H45.3434C45.312 35.2517 45.312 35.2517 45.312 35.2202L45.1547 34.3398C45.1547 34.3083 45.1547 34.3083 45.1233 34.3083H43.8655C43.834 34.3083 43.834 34.3083 43.834 34.3398V38.8051C43.834 38.8366 43.834 38.8366 43.8655 38.8366L44.5887 38.8994C44.6202 38.8994 44.6202 38.9309 44.6202 38.9309V39.1196C44.6202 39.151 44.6202 39.151 44.5887 39.151H42.356C42.3246 39.151 42.3246 39.151 42.3246 39.1196V38.9309C42.3246 38.8995 42.3246 38.8994 42.356 38.8994L43.0793 38.8366C43.1107 38.8366 43.1107 38.8366 43.1107 38.8051V34.3398C43.1107 34.3083 43.1107 34.3083 43.0793 34.3083H41.8214C41.79 34.3083 41.79 34.3083 41.79 34.3398L41.6328 35.2202C41.6328 35.2517 41.6328 35.2517 41.6013 35.2517H41.3183C41.2869 35.2517 41.2869 35.2517 41.2869 35.2202V33.9938C41.2869 33.9624 41.2869 33.9624 41.3183 33.9624H45.6264Z" fill="white"/>
<path d="M47.9591 33.9624C48.588 33.9624 49.0597 34.0253 49.3113 34.1825C49.4999 34.2769 49.6257 34.4026 49.7201 34.5284C49.8144 34.7171 49.8773 34.9058 49.8773 35.1574C49.8773 35.6919 49.5628 36.1007 48.9339 36.3209C49.3113 36.3838 49.5943 36.5724 49.8459 36.7926C50.0974 37.0441 50.2232 37.3586 50.2232 37.7045C50.2232 37.9875 50.1289 38.2705 49.9716 38.4906C49.6572 38.9309 49.0597 39.1825 48.1163 39.1825H46.1352C46.1038 39.1825 46.1038 39.1825 46.1038 39.151V38.9623C46.1038 38.9309 46.1038 38.9309 46.1352 38.9309L46.7956 38.868C46.827 38.868 46.827 38.868 46.827 38.8366V34.3398C46.827 34.3083 46.827 34.3083 46.7956 34.3083L46.1352 34.2454C46.1038 34.2454 46.1038 34.2454 46.1038 34.214V34.0253C46.1038 33.9938 46.1038 33.9938 46.1352 33.9938H47.9591V33.9624ZM47.5188 36.1951C47.5188 36.2265 47.5188 36.2265 47.5503 36.2265H47.8019C48.2107 36.2265 48.5566 36.1636 48.7452 36.0378C49.0283 35.8806 49.1855 35.5976 49.1855 35.2202C49.1855 34.9058 49.0911 34.6857 48.871 34.5284C48.6823 34.3712 48.4308 34.3083 48.1478 34.3083H47.8647H47.5817C47.5503 34.3083 47.5503 34.3083 47.5503 34.3398V36.1951H47.5188ZM47.5188 38.8051C47.5188 38.8366 47.5188 38.8366 47.5503 38.8366H48.0534C48.9968 38.8366 49.4371 38.4906 49.4371 37.7988C49.4371 36.9812 48.9339 36.541 47.8962 36.541H47.5503C47.5188 36.541 47.5188 36.541 47.5188 36.5724V38.8051Z" fill="white"/>
<path d="M54.5573 33.9624C54.5887 33.9624 54.5887 33.9624 54.5887 33.9938V35.2202C54.5887 35.2517 54.5887 35.2517 54.5573 35.2517H54.2743C54.2428 35.2517 54.2428 35.2517 54.2428 35.2202L54.0856 34.3398C54.0856 34.3083 54.0856 34.3083 54.0541 34.3083H52.2617C52.2303 34.3083 52.2303 34.3083 52.2303 34.3398V36.258C52.2303 36.2894 52.2303 36.2894 52.2617 36.2894H53.3309C53.3623 36.2894 53.3623 36.2894 53.3623 36.258L53.4252 35.6291C53.4252 35.5976 53.4252 35.5976 53.4567 35.5976H53.6768C53.7082 35.5976 53.7082 35.5976 53.7082 35.6291V37.3271C53.7082 37.3586 53.7082 37.3586 53.6768 37.3586H53.4881C53.4567 37.3586 53.4567 37.3586 53.4567 37.3271L53.3938 36.6668C53.3938 36.6353 53.3938 36.6353 53.3623 36.6353H52.2932C52.2617 36.6353 52.2617 36.6353 52.2617 36.6668V38.7737C52.2617 38.8051 52.2617 38.8051 52.2932 38.8051H54.1799C54.2114 38.8051 54.2114 38.8051 54.2114 38.7737L54.3686 37.8932C54.3686 37.8617 54.3686 37.8617 54.4 37.8617H54.6831C54.7145 37.8617 54.7145 37.8617 54.7145 37.8932V39.0881C54.7145 39.1196 54.7145 39.1196 54.6831 39.1196H50.8466C50.8152 39.1196 50.8152 39.1196 50.8152 39.0881V38.8995C50.8152 38.868 50.8152 38.868 50.8466 38.868L51.507 38.8051C51.5384 38.8051 51.5384 38.8051 51.5384 38.7737V34.3398L51.507 34.3083L50.8466 34.2454C50.8152 34.2454 50.8152 34.2454 50.8152 34.214V34.0253C50.8152 33.9938 50.8152 33.9938 50.8466 33.9938H54.5573V33.9624Z" fill="white"/>
<path d="M55.3462 33.9938C55.3462 33.9624 55.3462 33.9624 55.3776 33.9624H57.4216C57.4531 33.9624 57.4531 33.9624 57.4531 33.9938V34.1825C57.4531 34.214 57.4531 34.214 57.4216 34.214L56.7927 34.2769C56.7613 34.2769 56.7613 34.2769 56.7613 34.3083V36.1951V36.2265H59.2455C59.2455 36.2265 59.2455 36.2265 59.2455 36.1951V34.3083C59.2455 34.2769 59.2455 34.2769 59.2141 34.2769L58.5851 34.214C58.5537 34.214 58.5537 34.214 58.5537 34.1825V33.9938C58.5537 33.9624 58.5537 33.9624 58.5851 33.9624H60.6291C60.6606 33.9624 60.6606 33.9624 60.6606 33.9938V34.1825C60.6606 34.214 60.6606 34.214 60.6291 34.214L59.9688 34.2769C59.9373 34.2769 59.9373 34.2769 59.9373 34.3083V38.7737C59.9373 38.8051 59.9373 38.8051 59.9688 38.8051L60.6291 38.868C60.6606 38.868 60.6606 38.868 60.6606 38.8995V39.0881C60.6606 39.1196 60.6606 39.1196 60.6291 39.1196H58.5851C58.5537 39.1196 58.5537 39.1196 58.5537 39.0881V38.8995C58.5537 38.868 58.5537 38.868 58.5851 38.868L59.2141 38.8051C59.2455 38.8051 59.2455 38.8051 59.2455 38.7737V36.6039C59.2455 36.5724 59.2455 36.5724 59.2141 36.5724H56.7613C56.7298 36.5724 56.7298 36.5724 56.7298 36.6039V38.7737C56.7298 38.8051 56.7298 38.8051 56.7613 38.8051L57.3902 38.868C57.4216 38.868 57.4216 38.868 57.4216 38.8995V39.0881C57.4216 39.1196 57.4216 39.1196 57.3902 39.1196H55.3776C55.3462 39.1196 55.3462 39.1196 55.3462 39.0881V38.8995C55.3462 38.868 55.3462 38.868 55.3776 38.868L56.038 38.8051C56.0695 38.8051 56.0695 38.8051 56.0695 38.7737V34.3398C56.0695 34.3083 56.0695 34.3083 56.038 34.3083L55.3776 34.2454C55.3462 34.2454 55.3462 34.2454 55.3462 34.214V33.9938Z" fill="white"/>
<path d="M61.26 33.9938C61.26 33.9624 61.26 33.9624 61.2914 33.9624H63.3354C63.3669 33.9624 63.3669 33.9624 63.3669 33.9938V34.1825C63.3669 34.214 63.3669 34.214 63.3354 34.214L62.7065 34.2769C62.675 34.2769 62.675 34.2769 62.675 34.3083V36.1951V36.2265H65.1593C65.1593 36.2265 65.1593 36.2265 65.1593 36.1951V34.3083C65.1593 34.2769 65.1593 34.2769 65.1278 34.2769L64.4989 34.214C64.4675 34.214 64.4675 34.214 64.4675 34.1825V33.9938C64.4675 33.9624 64.4675 33.9624 64.4989 33.9624H66.5429C66.5744 33.9624 66.5744 33.9624 66.5744 33.9938V34.1825C66.5744 34.214 66.5744 34.214 66.5429 34.214L65.8825 34.2769C65.8511 34.2769 65.8511 34.2769 65.8511 34.3083V38.7737C65.8511 38.8051 65.8511 38.8051 65.8825 38.8051L66.5429 38.868C66.5744 38.868 66.5744 38.868 66.5744 38.8995V39.0881C66.5744 39.1196 66.5744 39.1196 66.5429 39.1196H64.4989C64.4675 39.1196 64.4675 39.1196 64.4675 39.0881V38.8995C64.4675 38.868 64.4675 38.868 64.4989 38.868L65.1278 38.8051C65.1593 38.8051 65.1593 38.8051 65.1593 38.7737V36.6039C65.1593 36.5724 65.1593 36.5724 65.1278 36.5724H62.675C62.6436 36.5724 62.6436 36.5724 62.6436 36.6039V38.7737C62.6436 38.8051 62.6436 38.8051 62.675 38.8051L63.304 38.868C63.3354 38.868 63.3354 38.868 63.3354 38.8995V39.0881C63.3354 39.1196 63.3354 39.1196 63.304 39.1196H61.26C61.2285 39.1196 61.2285 39.1196 61.2285 39.0881V38.8995C61.2285 38.868 61.2285 38.868 61.26 38.868L61.9203 38.8051C61.9518 38.8051 61.9518 38.8051 61.9518 38.7737V34.3398C61.9518 34.3083 61.9518 34.3083 61.9203 34.3083L61.26 34.2454C61.2285 34.2454 61.2285 34.2454 61.2285 34.214V33.9938H61.26Z" fill="white"/>
<path d="M69.3967 33.9624C69.4282 33.9624 69.4282 33.9624 69.4282 33.9938V34.1825C69.4282 34.214 69.4282 34.214 69.3967 34.214L68.6735 34.2769C68.642 34.2769 68.642 34.2769 68.642 34.3083V36.0378C68.642 36.0693 68.642 36.0693 68.6735 36.0693H68.925C69.1137 36.0693 69.3024 36.0693 69.4596 36.0693C69.6169 36.0693 69.7741 36.1007 69.9313 36.1322C70.0885 36.1636 70.2143 36.2265 70.3401 36.258C70.4659 36.3209 70.5917 36.4152 70.7489 36.5095C70.9062 36.6353 71.0005 36.7926 71.0948 36.9812C71.1892 37.1699 71.2206 37.3586 71.2206 37.5473C71.2206 37.6102 71.2206 37.7045 71.2206 37.7674C71.2206 37.8303 71.1892 37.9246 71.1892 38.019C71.1577 38.1133 71.1577 38.1762 71.1263 38.2391C71.0948 38.302 71.0634 38.3649 71.0319 38.4278C70.969 38.5221 70.8747 38.6164 70.7804 38.7108C70.686 38.8051 70.5288 38.868 70.403 38.9309C70.2458 38.9938 70.0571 39.0567 69.8684 39.0881C69.6483 39.1196 69.4282 39.151 69.1452 39.151H67.3527C67.3213 39.151 67.3213 39.151 67.3213 39.1196V38.9309C67.3213 38.8995 67.3213 38.8994 67.3527 38.8994L68.0131 38.8366C68.0445 38.8366 68.0446 38.8366 68.0446 38.8051V34.3398C68.0446 34.3083 68.0445 34.3083 68.0131 34.3083L67.3527 34.2454C67.3213 34.2454 67.3213 34.2454 67.3213 34.214V34.0253C67.3213 33.9938 67.3213 33.9938 67.3527 33.9938H69.3967V33.9624ZM68.642 38.8366H68.9879C69.2395 38.8366 69.4282 38.8051 69.6169 38.7737C69.8055 38.7108 69.9313 38.6479 70.0571 38.5535C70.1829 38.4592 70.2458 38.3334 70.3087 38.1762C70.3716 38.0504 70.403 37.8932 70.403 37.7045C70.403 37.4844 70.3716 37.2957 70.2772 37.1385C70.1829 36.9812 70.0885 36.8554 69.9313 36.7611C69.7741 36.6668 69.6169 36.6039 69.4282 36.541C69.2395 36.5095 69.0508 36.4781 68.8307 36.4781H68.642C68.6106 36.4781 68.6106 36.4781 68.6106 36.5095V38.8051C68.6106 38.8366 68.6106 38.8366 68.642 38.8366ZM73.359 33.9624C73.3904 33.9624 73.3904 33.9624 73.3904 33.9938V34.1825C73.3904 34.214 73.3904 34.214 73.359 34.214L72.6986 34.2769C72.6671 34.2769 72.6671 34.2769 72.6671 34.3083V38.7737C72.6671 38.8051 72.6671 38.8051 72.6986 38.8051L73.359 38.868C73.3904 38.868 73.3904 38.868 73.3904 38.8994V39.0881C73.3904 39.1196 73.3904 39.1196 73.359 39.1196H71.3464C71.3149 39.1196 71.315 39.1196 71.315 39.0881V38.8994C71.315 38.868 71.3149 38.868 71.3464 38.868L71.9124 38.8051C71.9439 38.8051 71.9439 38.8051 71.9439 38.7737V34.3398C71.9439 34.3083 71.9439 34.3083 71.9124 34.3083L71.3464 34.2454C71.3149 34.2454 71.315 34.2454 71.315 34.214V34.0253C71.315 33.9938 71.3149 33.9938 71.3464 33.9938H73.359V33.9624Z" fill="white"/>
<path d="M76.065 33.9604C76.0964 33.9604 76.0964 33.9604 76.0964 33.9918V34.1805C76.0964 34.212 76.0964 34.212 76.065 34.212L75.4361 34.2749C75.4046 34.2749 75.4046 34.2748 75.4046 34.3063V37.7968L77.9832 34.6522L78.0147 34.6208V34.3377C78.0147 34.3063 78.0147 34.3063 77.9832 34.3063L77.3543 34.2434C77.3228 34.2434 77.3228 34.2434 77.3228 34.212V34.0233C77.3228 33.9918 77.3228 33.9918 77.3543 33.9918H79.3983C79.4297 33.9918 79.4297 33.9918 79.4297 34.0233V34.212C79.4297 34.2434 79.4297 34.2434 79.3983 34.2434L78.7379 34.3063C78.7065 34.3063 78.7065 34.3063 78.7065 34.3377V38.8031C78.7065 38.8345 78.7065 38.8345 78.7379 38.8345L79.3983 38.8974C79.4297 38.8974 79.4297 38.8974 79.4297 38.9289V39.1176C79.4297 39.149 79.4297 39.149 79.3983 39.149H77.3543C77.3228 39.149 77.3228 39.149 77.3228 39.1176V38.9289C77.3228 38.8974 77.3228 38.8974 77.3543 38.8974L77.9832 38.8345C78.0147 38.8345 78.0147 38.8345 78.0147 38.8031V35.2182L75.4361 38.3629V38.3943V38.7717C75.4361 38.8031 75.4361 38.8031 75.4675 38.8031L76.0964 38.866C76.1279 38.866 76.1279 38.866 76.1279 38.8974V39.0861C76.1279 39.1176 76.1279 39.1176 76.0964 39.1176H74.0524C74.021 39.1176 74.021 39.1176 74.021 39.0861V38.8974C74.021 38.866 74.021 38.866 74.0524 38.866L74.7128 38.8031C74.7443 38.8031 74.7443 38.8031 74.7443 38.7717V34.3377C74.7443 34.3063 74.7443 34.3063 74.7128 34.3063L74.0524 34.2434C74.021 34.2434 74.021 34.2434 74.021 34.212V34.0233C74.021 33.9918 74.021 33.9918 74.0524 33.9918H76.065V33.9604ZM76.6939 33.2371C76.7883 33.2371 76.8826 33.2371 76.9455 33.2371C77.0084 33.2371 77.1027 33.2057 77.1342 33.2057C77.1971 33.1742 77.2285 33.1742 77.26 33.1428C77.2914 33.1113 77.2914 33.0799 77.2914 33.017C77.2914 32.9856 77.2914 32.9227 77.26 32.8912C77.26 32.8283 77.2285 32.7969 77.2285 32.734C77.2285 32.6396 77.26 32.5768 77.3228 32.5453C77.3857 32.4824 77.4486 32.4824 77.543 32.4824C77.6059 32.4824 77.6373 32.4824 77.6688 32.5139C77.7002 32.5453 77.7631 32.5768 77.7945 32.6082C77.826 32.6397 77.8574 32.7025 77.8889 32.734C77.9203 32.7969 77.9203 32.8283 77.9203 32.8912C77.9203 32.9856 77.8889 33.1113 77.826 33.1742C77.7631 33.2686 77.6688 33.3315 77.5744 33.3944C77.4801 33.4573 77.3228 33.5201 77.1656 33.5516C77.0084 33.583 76.8512 33.6145 76.6625 33.6145C76.4738 33.6145 76.2851 33.583 76.1279 33.5516C75.9707 33.5201 75.8449 33.4573 75.7191 33.3944C75.5933 33.3315 75.5304 33.2371 75.4675 33.1742C75.4046 33.0799 75.3732 32.9856 75.3732 32.8912C75.3732 32.8283 75.3732 32.7654 75.4046 32.734C75.4361 32.6711 75.4675 32.6397 75.499 32.6082C75.5304 32.5768 75.5619 32.5453 75.6248 32.5139C75.6562 32.4824 75.7191 32.4824 75.782 32.4824C75.8763 32.4824 75.9392 32.5139 76.0021 32.5453C76.065 32.6082 76.0964 32.6711 76.0964 32.734C76.0964 32.7969 76.0964 32.8283 76.065 32.8912C76.0336 32.9541 76.0336 32.9856 76.0336 33.017C76.0336 33.0799 76.065 33.1113 76.0964 33.1428C76.1279 33.1742 76.1593 33.2057 76.2222 33.2057C76.2851 33.2371 76.348 33.2371 76.4109 33.2371C76.5367 33.2057 76.5996 33.2057 76.6939 33.2371Z" fill="white"/>
<path d="M6.06867 46.5743C6.13156 46.5743 6.19445 46.6058 6.19445 46.7001V47.2976C6.19445 47.3605 6.16301 47.4234 6.06867 47.4234L4.27624 47.612C4.21335 47.612 4.15045 47.6435 4.15045 47.7378V57.832L11.6346 48.6812C11.6661 48.6498 11.6975 48.6183 11.6975 48.5554V47.7064C11.6975 47.6435 11.6661 47.5806 11.5717 47.5806L9.77932 47.3919C9.71643 47.3919 9.65353 47.3605 9.65353 47.2661V46.6687C9.65353 46.6058 9.68498 46.5429 9.77932 46.5429H15.6912C15.7541 46.5429 15.817 46.5743 15.817 46.6687V47.2661C15.817 47.329 15.7855 47.3919 15.6912 47.3919L13.773 47.5806C13.7101 47.5806 13.6472 47.612 13.6472 47.7064V60.6936C13.6472 60.7565 13.6786 60.8194 13.773 60.8194L15.6912 61.0081C15.7541 61.0081 15.817 61.0396 15.817 61.1339V61.7314C15.817 61.7943 15.7855 61.8572 15.6912 61.8572H9.74787C9.68498 61.8572 9.62209 61.8257 9.62209 61.7314V61.071C9.62209 60.9767 9.65353 60.9452 9.74787 60.9452L11.5403 60.7565C11.6346 60.7565 11.6661 60.7251 11.6661 60.6308V50.2535L4.1819 59.3729C4.15045 59.4044 4.15045 59.4358 4.15045 59.4987V60.6308C4.15045 60.6936 4.1819 60.7565 4.27624 60.7565L6.06867 60.9452C6.13156 60.9452 6.19445 60.9767 6.19445 61.071V61.6685C6.19445 61.7314 6.16301 61.7943 6.06867 61.7943H0.156791C0.0938987 61.7943 0.0310059 61.7628 0.0310059 61.6685V61.071C0.0310059 60.9767 0.0624525 60.9452 0.156791 60.9452L2.07501 60.7565C2.1379 60.7565 2.20079 60.7251 2.20079 60.6308V47.6435C2.20079 47.5806 2.16935 47.5177 2.07501 47.5177L0.156791 47.329C0.0938987 47.329 0.0310059 47.2976 0.0310059 47.2032V46.6058C0.0310059 46.5429 0.0624525 46.48 0.156791 46.48H6.06867V46.5743Z" fill="white"/>
<path d="M17.45 46.6668C17.45 46.6039 17.4814 46.541 17.5757 46.541H23.4876C23.5505 46.541 23.6134 46.5725 23.6134 46.6668V47.2643C23.6134 47.3272 23.582 47.3901 23.4876 47.3901L21.6952 47.5787C21.6323 47.5787 21.5694 47.6102 21.5694 47.7045V53.1762C21.5694 53.2076 21.5694 53.239 21.6008 53.239H28.8649C28.8649 53.239 28.8964 53.2076 28.8964 53.1762V47.7045C28.8964 47.6416 28.8649 47.5787 28.7706 47.5787L26.9781 47.3901C26.9152 47.3901 26.8524 47.3586 26.8524 47.2643V46.6668C26.8524 46.6039 26.8838 46.541 26.9781 46.541H32.89C32.9529 46.541 33.0158 46.5725 33.0158 46.6668V47.2643C33.0158 47.3272 32.9844 47.3901 32.89 47.3901L30.9718 47.5787C30.9089 47.5787 30.846 47.6102 30.846 47.7045V60.6918C30.846 60.7547 30.8775 60.8176 30.9718 60.8176L32.89 61.0063C32.9529 61.0063 33.0158 61.0377 33.0158 61.132V61.7295C33.0158 61.7924 32.9844 61.8553 32.89 61.8553H26.9781C26.9152 61.8553 26.8524 61.8239 26.8524 61.7295V61.0691C26.8524 60.9748 26.8838 60.9434 26.9781 60.9434L28.7706 60.7547C28.8335 60.7547 28.8964 60.7232 28.8964 60.6289V54.3397C28.8964 54.2768 28.8649 54.2139 28.7706 54.2139H21.6952C21.6323 54.2139 21.5694 54.2453 21.5694 54.3397V60.6289C21.5694 60.6918 21.6008 60.7547 21.6952 60.7547L23.4876 60.9434C23.5505 60.9434 23.6134 60.9748 23.6134 61.0691V61.6666C23.6134 61.7295 23.582 61.7924 23.4876 61.7924H17.5757C17.5128 61.7924 17.45 61.761 17.45 61.6666V61.0691C17.45 60.9748 17.4814 60.9434 17.5757 60.9434L19.494 60.7547C19.5568 60.7547 19.6197 60.7232 19.6197 60.6289V47.6416C19.6197 47.5787 19.5883 47.5158 19.494 47.5158L17.5757 47.3272C17.5128 47.3272 17.45 47.2957 17.45 47.2014V46.6668Z" fill="white"/>
<path d="M43.2721 46.228C43.5551 46.228 43.8381 46.2595 44.184 46.2909C44.5299 46.3224 44.8758 46.3853 45.2217 46.4167C45.5676 46.4796 45.9135 46.5425 46.2594 46.6054C46.6054 46.6683 46.8884 46.7312 47.1399 46.7626C47.2343 46.7626 47.2657 46.8255 47.2657 46.8884V50.316C47.2657 50.3789 47.2343 50.4418 47.1399 50.4418H46.2594C46.228 50.4418 46.1966 50.4418 46.1651 50.4104C46.1337 50.4104 46.1337 50.3789 46.1337 50.3475L45.6934 47.8003C45.6934 47.7689 45.662 47.706 45.5991 47.6745C45.4733 47.6431 45.2846 47.6117 45.0959 47.5488C44.8758 47.4859 44.6871 47.4544 44.467 47.3915C44.2469 47.3286 44.0268 47.2972 43.8066 47.2658C43.5865 47.2343 43.3664 47.2343 43.1463 47.2343C42.14 47.2343 41.2595 47.3915 40.4734 47.706C39.6872 48.0205 39.0268 48.4607 38.4922 49.0267C37.9577 49.5928 37.5489 50.2846 37.2658 51.0707C36.9828 51.8569 36.857 52.7374 36.857 53.6808C36.857 54.687 37.0143 55.599 37.2973 56.5109C37.5803 57.3914 38.0206 58.1776 38.5551 58.8694C39.0897 59.5298 39.7501 60.0643 40.5362 60.4731C41.291 60.8505 42.14 61.0706 43.0834 61.0706C43.2406 61.0706 43.4293 61.0706 43.6809 61.0392C43.901 61.0392 44.1526 61.0077 44.3727 60.9763C44.5928 60.9448 44.8444 60.9134 45.0645 60.8505C45.2846 60.819 45.4733 60.7247 45.662 60.6618C45.7249 60.6304 45.7563 60.5989 45.7563 60.536L46.1966 57.9889C46.1966 57.9889 46.1966 57.9574 46.228 57.926C46.2594 57.8946 46.2909 57.8946 46.3223 57.8946H47.2028C47.2972 57.8946 47.3286 57.926 47.3286 58.0203V61.4165C47.3286 61.448 47.2972 61.5109 47.2028 61.5423C46.9513 61.6052 46.6682 61.6681 46.3852 61.731C46.0708 61.7939 45.7563 61.8568 45.4104 61.9197C45.0645 61.9826 44.6557 62.014 44.2469 62.0769C43.8381 62.1083 43.3664 62.1398 42.8947 62.1398C42.0771 62.1398 41.291 62.0454 40.5677 61.8568C39.8444 61.6681 39.1841 61.4165 38.5551 61.0706C37.9577 60.7247 37.3916 60.3159 36.9199 59.8442C36.4482 59.3725 36.0394 58.8379 35.725 58.2719C35.4105 57.7059 35.159 57.077 34.9703 56.3851C34.7816 55.6933 34.6873 55.0015 34.6873 54.2468C34.6873 53.3978 34.7816 52.6116 35.0017 51.8883C35.2218 51.1651 35.5049 50.5047 35.8822 49.9072C36.2596 49.3098 36.7313 48.7752 37.2344 48.3349C37.769 47.8947 38.335 47.5173 38.9639 47.2029C39.5929 46.8884 40.2847 46.6683 41.0079 46.511C41.7626 46.3224 42.5174 46.228 43.2721 46.228Z" fill="white"/>
<path d="M61.4768 46.5725C61.5397 46.5725 61.6026 46.6039 61.6026 46.6982V50.2202C61.6026 50.3146 61.5711 50.346 61.4768 50.346H60.6278C60.5649 50.346 60.502 50.3146 60.502 50.2517L60.0617 47.7045C60.0617 47.6416 60.0303 47.6102 59.9359 47.6102H56.2882C56.2253 47.6102 56.1939 47.6416 56.1939 47.736V60.6603C56.1939 60.7232 56.2253 60.7547 56.3196 60.7861L58.458 60.9748C58.5523 60.9748 58.5838 61.0377 58.5838 61.1006V61.6981C58.5838 61.761 58.5523 61.8239 58.458 61.8239H51.9801C51.8857 61.8239 51.8543 61.7924 51.8543 61.6981V61.0691C51.8543 61.0063 51.8857 60.9434 51.9801 60.9434L54.1184 60.7547C54.1813 60.7547 54.2442 60.7232 54.2442 60.6289V47.7045C54.2442 47.6416 54.2127 47.5787 54.1499 47.5787H50.5021C50.4392 47.5787 50.3763 47.6102 50.3763 47.6731L49.9361 50.2202C49.9361 50.2831 49.9046 50.3146 49.8103 50.3146H48.9612C48.8983 50.3146 48.8354 50.2831 48.8354 50.1888V46.6668C48.8354 46.6039 48.8669 46.541 48.9612 46.541H61.4768V46.5725Z" fill="white"/>
<path d="M68.9015 46.5743C68.9644 46.5743 69.0273 46.6058 69.0273 46.7001V47.2976C69.0273 47.3605 68.9958 47.4234 68.9015 47.4234L67.1091 47.612C67.0462 47.612 66.9833 47.6435 66.9833 47.7378V57.832L74.4675 48.6812C74.4989 48.6498 74.5303 48.6183 74.5303 48.5554V47.7064C74.5303 47.6435 74.4989 47.5806 74.4046 47.5806L72.6121 47.3919C72.5492 47.3919 72.4863 47.3605 72.4863 47.2661V46.6687C72.4863 46.6058 72.5178 46.5429 72.6121 46.5429H78.524C78.5869 46.5429 78.6498 46.5743 78.6498 46.6687V47.2661C78.6498 47.329 78.6184 47.3919 78.524 47.3919L76.6058 47.5806C76.5429 47.5806 76.48 47.612 76.48 47.7064V60.6936C76.48 60.7565 76.5115 60.8194 76.6058 60.8194L78.524 61.0081C78.5869 61.0081 78.6498 61.0396 78.6498 61.1339V61.7314C78.6498 61.7943 78.6184 61.8572 78.524 61.8572H72.6121C72.5492 61.8572 72.4863 61.8257 72.4863 61.7314V61.071C72.4863 60.9767 72.5178 60.9452 72.6121 60.9452L74.4046 60.7565C74.4989 60.7565 74.5303 60.7251 74.5303 60.6308V50.2535L67.0462 59.3729C67.0147 59.4044 67.0147 59.4358 67.0147 59.4987V60.6308C67.0147 60.6936 67.0462 60.7565 67.1405 60.7565L68.9329 60.9452C68.9958 60.9452 69.0587 60.9767 69.0587 61.071V61.6685C69.0587 61.7314 69.0273 61.7943 68.9329 61.7943H63.0211C62.9582 61.7943 62.8953 61.7628 62.8953 61.6685V61.071C62.8953 60.9767 62.9267 60.9452 63.0211 60.9452L64.9393 60.7565C65.0022 60.7565 65.0651 60.7251 65.0651 60.6308V47.6435C65.0651 47.5806 65.0336 47.5177 64.9393 47.5177L63.0211 47.329C62.9582 47.329 62.8953 47.2976 62.8953 47.2032V46.6058C62.8953 46.5429 62.9267 46.48 63.0211 46.48H68.9015V46.5743Z" fill="white"/>
<path d="M92.4871 46.5725C92.55 46.5725 92.6128 46.6039 92.6128 46.6982V50.2202C92.6128 50.3146 92.5814 50.346 92.4871 50.346H91.638C91.5751 50.346 91.5122 50.3146 91.5122 50.2517L91.072 47.7045C91.072 47.6416 91.0405 47.6102 90.9462 47.6102H87.2984C87.2356 47.6102 87.2041 47.6416 87.2041 47.736V60.6603C87.2041 60.7232 87.2356 60.7547 87.3299 60.7861L89.4682 60.9748C89.5626 60.9748 89.594 61.0377 89.594 61.1006V61.6981C89.594 61.761 89.5626 61.8239 89.4682 61.8239H82.9903C82.896 61.8239 82.8645 61.7924 82.8645 61.6981V61.0691C82.8645 61.0063 82.896 60.9434 82.9903 60.9434L85.1287 60.7547C85.1916 60.7547 85.2544 60.7232 85.2544 60.6289V47.7045C85.2544 47.6416 85.223 47.5787 85.1601 47.5787H81.5124C81.4495 47.5787 81.3866 47.6102 81.3866 47.6731L80.9463 50.2202C80.9463 50.2831 80.9149 50.3146 80.8205 50.3146H79.9715C79.9086 50.3146 79.8457 50.2831 79.8457 50.1888V46.6668C79.8457 46.6039 79.8772 46.541 79.9715 46.541H92.4871V46.5725Z" fill="white"/>
<path d="M100.001 46.5736C100.064 46.5736 100.127 46.6051 100.127 46.6994V47.2969C100.127 47.3598 100.095 47.4227 100.001 47.4227L98.2398 47.6114C98.2084 47.6114 98.1769 47.6114 98.1769 47.6428C98.1455 47.6743 98.1455 47.7057 98.1769 47.7686L102.296 55.8817L105.818 47.7057C105.818 47.6743 105.818 47.6428 105.787 47.6114C105.755 47.5799 105.724 47.5485 105.693 47.5485L103.994 47.3912C103.932 47.3912 103.869 47.3598 103.869 47.2655V46.668C103.869 46.6051 103.9 46.5422 103.994 46.5422H108.869C108.932 46.5422 108.994 46.5736 108.994 46.668V47.2655C108.994 47.3283 108.963 47.3912 108.869 47.3912L107.013 47.5799C106.982 47.5799 106.95 47.6114 106.919 47.6428L102.674 57.454C102.265 58.3659 101.888 59.1207 101.542 59.7181C101.164 60.3156 100.818 60.7873 100.441 61.1332C100.095 61.4791 99.7178 61.7307 99.3404 61.8565C98.9631 61.9823 98.6172 62.0451 98.2398 62.0451C97.8625 62.0451 97.5165 61.9823 97.2021 61.8565C96.8876 61.7307 96.6361 61.542 96.4474 61.2904C96.4474 61.2904 96.4159 61.259 96.3845 61.1961C96.353 61.1647 96.3845 61.1018 96.4159 61.0389L97.5165 59.5295C97.548 59.4666 97.6109 59.4351 97.6423 59.4666C97.6738 59.4666 97.7052 59.498 97.7367 59.5295C97.8939 59.7181 98.0826 59.8439 98.2398 59.9697C98.397 60.064 98.6486 60.1269 98.9002 60.1269C99.3719 60.1269 99.7807 59.9697 100.158 59.6238C100.504 59.2779 100.85 58.8062 101.164 58.1458C101.164 58.1144 101.196 58.0829 101.196 58.0515C101.196 58.02 101.196 57.9886 101.164 57.9257L95.9442 47.6428C95.9128 47.6114 95.8814 47.5799 95.8499 47.5799L94.0575 47.3598C93.9946 47.3598 93.9631 47.3283 93.9631 47.234V46.6365C93.9631 46.5736 93.9946 46.5107 94.0889 46.5107H100.001V46.5736Z" fill="white"/>
<path d="M122.167 46.5725C122.23 46.5725 122.293 46.6039 122.293 46.6982V50.2202C122.293 50.3146 122.261 50.346 122.167 50.346H121.318C121.255 50.346 121.192 50.3146 121.192 50.2517L120.752 47.7045C120.752 47.6416 120.72 47.6102 120.626 47.6102H116.978C116.915 47.6102 116.884 47.6416 116.884 47.736V60.6603C116.884 60.7232 116.915 60.7547 117.01 60.7861L119.148 60.9748C119.242 60.9748 119.274 61.0377 119.274 61.1006V61.6981C119.274 61.761 119.242 61.8239 119.148 61.8239H112.67C112.576 61.8239 112.544 61.7924 112.544 61.6981V61.0691C112.544 61.0063 112.576 60.9434 112.67 60.9434L114.808 60.7547C114.871 60.7547 114.934 60.7232 114.934 60.6289V47.7045C114.934 47.6416 114.903 47.5787 114.84 47.5787H111.192C111.129 47.5787 111.066 47.6102 111.066 47.6731L110.626 50.2202C110.626 50.2831 110.595 50.3146 110.5 50.3146H109.651C109.588 50.3146 109.525 50.2831 109.525 50.1888V46.6668C109.525 46.6039 109.557 46.541 109.651 46.541H122.167V46.5725Z" fill="white"/>
<path d="M6.31838 69.3364C6.38127 69.3364 6.44417 69.3679 6.44417 69.4622V70.0597C6.44417 70.1226 6.41272 70.1855 6.31838 70.1855L4.40017 70.3742C4.33727 70.3742 4.27438 70.4056 4.27438 70.4999V76.1603C4.27438 76.2231 4.30583 76.286 4.36872 76.286C4.84041 76.286 5.28066 76.2231 5.65801 76.1288C6.03537 76.003 6.38127 75.8458 6.66429 75.6257C6.97875 75.4055 7.23032 75.1225 7.48189 74.8081C7.70201 74.4936 7.95358 74.1163 8.14226 73.676L9.24288 71.3804C9.463 70.9716 9.68312 70.5943 9.90325 70.2798C10.1234 69.9654 10.3435 69.7452 10.5951 69.5566C10.8466 69.3679 11.0668 69.2421 11.3183 69.1478C11.5699 69.0534 11.8215 69.022 12.1045 69.022C12.1988 69.022 12.3246 69.022 12.4818 69.0534C12.6391 69.0849 12.7648 69.1163 12.9221 69.1792C13.0793 69.2421 13.2051 69.305 13.3309 69.3679C13.4567 69.4308 13.5824 69.5251 13.6453 69.6195C13.6453 69.6195 13.6768 69.6823 13.7082 69.7138C13.7397 69.7767 13.7082 69.8081 13.6768 69.8081L12.5762 71.3175C12.5447 71.349 12.5133 71.3804 12.4818 71.4119C12.4504 71.4119 12.4189 71.4119 12.3875 71.4119C12.2617 71.2547 12.1045 71.1289 11.9472 71.0345C11.79 70.9402 11.6328 70.8773 11.4756 70.8773C11.2554 70.8773 11.0039 70.9716 10.7523 71.1603C10.5007 71.349 10.2492 71.6635 10.0605 72.1666L9.49444 73.393C9.33721 73.7389 9.14854 74.0848 8.95986 74.4307C8.77118 74.7766 8.55106 75.0911 8.33094 75.3741C8.11081 75.6571 7.89069 75.9087 7.67057 76.0974C7.45044 76.3175 7.23032 76.4433 7.0102 76.5376C7.32466 76.632 7.60768 76.7263 7.89069 76.8835C8.17371 77.0093 8.45672 77.198 8.70829 77.4496C8.95986 77.7011 9.24288 77.9841 9.49444 78.2986C9.74601 78.6445 9.99758 79.0219 10.2492 79.4936L12.356 83.5501C12.3875 83.613 12.4504 83.6444 12.5133 83.6444L14.1799 83.8331C14.2743 83.8331 14.3057 83.8646 14.3057 83.9589V84.5564C14.3057 84.6193 14.2743 84.6822 14.1799 84.6822H10.5322C10.4693 84.6822 10.4064 84.6507 10.3749 84.5878L8.29949 80.2168C7.98503 79.5564 7.67057 79.0219 7.32466 78.6131C6.97875 78.2357 6.66429 77.9212 6.31838 77.7011C5.97247 77.481 5.65801 77.3552 5.34355 77.2923C5.02909 77.2294 4.71463 77.198 4.40017 77.198C4.33727 77.198 4.27438 77.2294 4.27438 77.3238V83.5816C4.27438 83.6444 4.30583 83.7073 4.40017 83.7073L6.31838 83.896C6.38127 83.896 6.44417 83.9275 6.44417 84.0218V84.6193C6.44417 84.6822 6.41272 84.7451 6.31838 84.7451H0.217825C0.154933 84.7451 0.092041 84.7136 0.092041 84.6193V84.0218C0.092041 83.9275 0.123486 83.896 0.217825 83.896L2.13604 83.7073C2.19893 83.7073 2.26183 83.6759 2.26183 83.5816V70.5314C2.26183 70.4685 2.23038 70.4056 2.13604 70.4056L0.217825 70.2169C0.154933 70.2169 0.092041 70.1855 0.092041 70.0912V69.4937C0.092041 69.4308 0.123486 69.3679 0.217825 69.3679H6.31838V69.3364Z" fill="white"/>
<path d="M21.5404 69.34C21.6033 69.34 21.6662 69.3715 21.6662 69.4658V70.0633C21.6662 70.1262 21.6347 70.1891 21.5404 70.1891L19.7794 70.3778C19.748 70.3778 19.7165 70.3778 19.7165 70.4092C19.6851 70.4407 19.6851 70.4721 19.7165 70.535L23.8674 78.711L27.4208 70.5035C27.4208 70.4721 27.4208 70.4407 27.3894 70.4092C27.3579 70.3778 27.3265 70.3463 27.295 70.3463L25.597 70.1891C25.5341 70.1891 25.4712 70.1576 25.4712 70.0633V69.4658C25.4712 69.4029 25.5026 69.34 25.597 69.34H30.5026C30.5654 69.34 30.6283 69.3715 30.6283 69.4658V70.0633C30.6283 70.1262 30.5969 70.1891 30.5026 70.1891L28.6472 70.3778C28.6158 70.3778 28.5843 70.4092 28.5529 70.4406L24.2448 80.2833C23.836 81.1952 23.4586 81.9814 23.0813 82.5789C22.7039 83.1763 22.358 83.648 21.9806 83.9939C21.6033 84.3399 21.2574 84.5914 20.88 84.7172C20.5027 84.843 20.1568 84.9373 19.7794 84.9373C19.4021 84.9373 19.0562 84.8744 18.7102 84.7487C18.3958 84.6229 18.1442 84.4342 17.9555 84.1826C17.9555 84.1826 17.9241 84.1512 17.8926 84.0883C17.8612 84.0568 17.8926 83.994 17.9241 83.9311L19.0562 82.3902C19.0876 82.3273 19.1505 82.2959 19.1819 82.3273C19.2134 82.3273 19.2448 82.3587 19.2763 82.3902C19.4335 82.5789 19.6222 82.7361 19.7794 82.8304C19.9681 82.9248 20.1882 82.9877 20.4398 82.9877C20.9115 82.9877 21.3517 82.8304 21.6976 82.4845C22.0435 82.1386 22.3894 81.6669 22.7039 81.0066C22.7039 80.9751 22.7354 80.9437 22.7354 80.9122C22.7354 80.8808 22.7354 80.8493 22.7039 80.7864L17.3895 70.4406C17.3581 70.4092 17.3266 70.3778 17.2952 70.3778L15.4713 70.1576C15.4084 70.1576 15.377 70.1262 15.377 70.0319V69.4344C15.377 69.3715 15.4084 69.3086 15.5027 69.3086H21.5404V69.34Z" fill="white"/>
<path d="M45.8817 69.3398C45.9446 69.3398 46.0075 69.3713 46.0075 69.4656V70.0631C46.0075 70.126 45.9761 70.1889 45.8817 70.1889L43.9635 70.3776C43.9006 70.3776 43.8377 70.409 43.8377 70.5034V83.5535C43.8377 83.6164 43.8692 83.6793 43.9635 83.6793L45.8817 83.868C45.9446 83.868 46.0075 83.8994 46.0075 83.9938V84.5912C46.0075 84.6541 45.9761 84.717 45.8817 84.717H39.9384C39.8755 84.717 39.8126 84.6856 39.8126 84.5912V83.9938C39.8126 83.8994 39.8441 83.868 39.9384 83.868L41.7623 83.6793C41.8566 83.6793 41.8881 83.6479 41.8881 83.5535V70.5034C41.8881 70.4405 41.8566 70.3776 41.7623 70.3776H38.2403C38.2089 70.3776 38.1774 70.409 38.1774 70.5034C38.146 71.4782 38.0831 72.4845 38.0202 73.4907C37.9573 74.497 37.863 75.4718 37.7686 76.4467C37.6428 77.4215 37.5171 78.3335 37.3284 79.2139C37.1397 80.0944 36.9196 80.912 36.668 81.6353C36.2592 82.7674 35.7561 83.585 35.19 84.151C34.624 84.717 33.9322 85 33.1775 85C33.0203 85 32.863 85 32.7058 84.9686C32.5486 84.9686 32.3599 84.9057 32.1712 84.8428C31.9825 84.7799 31.7939 84.6856 31.6366 84.5912C31.4479 84.4969 31.2907 84.3397 31.102 84.1824C31.102 84.1824 31.0706 84.151 31.0391 84.0881C31.0077 84.0567 31.0391 83.9938 31.0706 83.9309L32.2341 82.3271C32.2655 82.2642 32.3284 82.2328 32.3599 82.2642C32.4228 82.2642 32.4542 82.2957 32.4542 82.2957C32.6743 82.5158 32.863 82.673 33.0517 82.7359C33.2404 82.8303 33.4291 82.8617 33.5863 82.8617C33.7435 82.8617 33.9008 82.8617 34.0265 82.8303C34.1523 82.7988 34.3095 82.7359 34.4353 82.6416C34.5611 82.5472 34.7183 82.4215 34.8441 82.2642C34.9699 82.107 35.0957 81.9183 35.2215 81.6982C35.4102 81.3208 35.5988 80.8806 35.7561 80.346C35.9133 79.8114 36.0705 79.2454 36.1963 78.6165C36.3221 77.9875 36.4479 77.3272 36.5422 76.6668C36.6366 75.975 36.6995 75.2832 36.7938 74.5914C36.8567 73.8681 36.9196 73.1763 36.9196 72.4845C36.9196 71.7926 36.951 71.1323 36.9825 70.5348C36.9825 70.5348 36.9825 70.5034 36.951 70.4719C36.951 70.4405 36.9196 70.4405 36.8567 70.4405L34.6869 70.2518C34.624 70.2518 34.5611 70.2203 34.5611 70.126V69.5285C34.5611 69.4656 34.5926 69.4027 34.6869 69.4027H45.8817V69.3398Z" fill="white"/>
<path d="M54.0495 69.3407C54.1439 69.3407 54.1753 69.3722 54.1753 69.4665V70.064C54.1753 70.1269 54.1439 70.1898 54.0495 70.1898L51.9112 70.3784C51.8483 70.3784 51.7854 70.4099 51.7854 70.5042V75.5356C51.7854 75.5985 51.8169 75.6614 51.9112 75.6614H53.0118C53.5778 75.6614 54.081 75.6614 54.5841 75.6928C55.0558 75.6928 55.5275 75.7557 55.9678 75.8501C56.408 75.9444 56.8168 76.0702 57.1942 76.2589C57.5715 76.4476 57.9489 76.6991 58.3262 77.0136C58.7665 77.3909 59.1124 77.8312 59.3325 78.3343C59.5526 78.8689 59.6784 79.4035 59.6784 80.001C59.6784 80.2211 59.6784 80.4412 59.647 80.6613C59.6155 80.8815 59.5841 81.133 59.5212 81.3532C59.4583 81.6047 59.3954 81.8249 59.3011 82.0135C59.2067 82.2337 59.1124 82.4223 58.9866 82.611C58.7979 82.894 58.5463 83.177 58.2319 83.4286C57.9174 83.6802 57.5401 83.9003 57.0684 84.0575C56.6281 84.2462 56.0935 84.372 55.4646 84.4978C54.8671 84.5921 54.1439 84.655 53.3577 84.655H47.7603C47.6974 84.655 47.6345 84.6236 47.6345 84.5292V83.9317C47.6345 83.8374 47.666 83.806 47.7603 83.806L49.6785 83.6173C49.7414 83.6173 49.8043 83.5858 49.8043 83.4915V70.4413C49.8043 70.3784 49.7729 70.3156 49.6785 70.3156L47.7603 70.1269C47.6974 70.1269 47.6345 70.0954 47.6345 70.0011V69.4036C47.6345 69.3407 47.666 69.2778 47.7603 69.2778H54.0495V69.3407ZM51.9112 83.5858H53.2948C54.0181 83.5858 54.647 83.5229 55.1502 83.3657C55.6533 83.2085 56.0935 82.9884 56.408 82.7053C56.7539 82.4223 56.974 82.045 57.1313 81.6362C57.2885 81.2274 57.3828 80.7557 57.3828 80.2525C57.3828 79.6236 57.2571 79.089 57.0369 78.6488C56.8168 78.2085 56.4709 77.8312 56.0621 77.5482C55.6533 77.2652 55.1502 77.045 54.6156 76.9192C54.0495 76.7935 53.4835 76.6991 52.8231 76.6991H51.8798C51.8169 76.6991 51.754 76.7306 51.754 76.8249V83.5229C51.7854 83.5544 51.8483 83.5858 51.9112 83.5858Z" fill="white"/>
<path d="M73.608 69.3398C73.6709 69.3398 73.7338 69.3713 73.7338 69.4656V73.019C73.7338 73.1134 73.7024 73.1448 73.608 73.1448H72.759C72.6961 73.1448 72.6332 73.1134 72.6332 73.0505L72.1929 70.4719C72.1929 70.409 72.1615 70.3776 72.0672 70.3776H68.3879C68.3251 70.3776 68.2936 70.409 68.2936 70.5034V83.5221C68.2936 83.585 68.3251 83.6164 68.4194 83.6478L70.5577 83.8365C70.6521 83.8365 70.6835 83.8994 70.6835 83.9623V84.5598C70.6835 84.6227 70.6521 84.6856 70.5577 84.6856H64.0484C63.954 84.6856 63.9226 84.6541 63.9226 84.5598V83.9623C63.9226 83.8994 63.954 83.8365 64.0484 83.8365L66.1867 83.6478C66.2496 83.6478 66.3125 83.6164 66.3125 83.5221V70.5034C66.3125 70.4405 66.2811 70.3776 66.2182 70.3776H62.539C62.4761 70.3776 62.4132 70.409 62.4132 70.4719L61.9729 73.0505C61.9729 73.1134 61.9415 73.1448 61.8471 73.1448H60.9981C60.9352 73.1448 60.8723 73.1134 60.8723 73.019V69.4656C60.8723 69.4027 60.9038 69.3398 60.9981 69.3398H73.608Z" fill="white"/>
<path d="M81.1955 69.3398C81.2584 69.3398 81.3213 69.3713 81.3213 69.4656V70.0631C81.3213 70.126 81.2898 70.1889 81.1955 70.1889L79.4345 70.3776C79.403 70.3776 79.3716 70.3776 79.3716 70.409C79.3401 70.4405 79.3401 70.4719 79.3716 70.5348L83.5225 78.7108L87.0759 70.5034C87.0759 70.4719 87.0759 70.4405 87.0445 70.409C87.013 70.3776 86.9816 70.3461 86.9501 70.3461L85.252 70.1889C85.1891 70.1889 85.1262 70.1574 85.1262 70.0631V69.4656C85.1262 69.4027 85.1577 69.3398 85.252 69.3398H90.1576C90.2205 69.3398 90.2834 69.3713 90.2834 69.4656V70.0631C90.2834 70.126 90.252 70.1889 90.1576 70.1889L88.3023 70.3776C88.2709 70.3776 88.2394 70.409 88.208 70.4405L83.9313 80.3146C83.5225 81.2265 83.1451 82.0127 82.7678 82.6101C82.3904 83.2076 82.0445 83.6793 81.6672 84.0252C81.2898 84.3711 80.9439 84.6227 80.5666 84.7485C80.1892 84.8743 79.8433 84.9686 79.4659 84.9686C79.0886 84.9686 78.7427 84.9057 78.3968 84.7799C78.0823 84.6541 77.8307 84.4655 77.6421 84.2139C77.6421 84.2139 77.6106 84.1824 77.5792 84.1195C77.5477 84.0881 77.5792 84.0252 77.6106 83.9623L78.7427 82.4215C78.7741 82.3586 78.837 82.3271 78.8685 82.3586C78.8999 82.3586 78.9314 82.39 78.9628 82.4215C79.12 82.6101 79.3087 82.7674 79.4659 82.8617C79.6546 82.956 79.8747 83.0189 80.1263 83.0189C80.598 83.0189 81.0382 82.8617 81.3842 82.5158C81.7301 82.1699 82.076 81.6982 82.3904 81.0378C82.3904 81.0064 82.4219 80.9749 82.4219 80.9435C82.4219 80.912 82.4219 80.8806 82.3904 80.8177L77.076 70.4719C77.0446 70.4405 77.0131 70.409 76.9817 70.409L75.1578 70.1889C75.0949 70.1889 75.0635 70.1574 75.0635 70.0631V69.4656C75.0635 69.4027 75.0949 69.3398 75.1893 69.3398H81.1955Z" fill="white"/>
<path d="M96.9828 69.341C98.4293 69.341 99.53 69.4668 100.253 69.7184C102.109 70.3473 103.052 71.668 103.052 73.6806C103.052 75.0328 102.454 76.1019 101.26 76.951C100.19 77.7057 98.9639 78.0831 97.5489 78.1145L95.3476 77.7371V83.5232C95.3476 83.5861 95.3791 83.6176 95.4734 83.649L97.6117 83.8377C97.7061 83.8377 97.7375 83.9006 97.7375 83.9635V84.561C97.7375 84.6239 97.7061 84.6867 97.6117 84.6867H91.2911C91.2282 84.6867 91.1653 84.6553 91.1653 84.561V83.9635C91.1653 83.8691 91.1967 83.8377 91.2911 83.8377L93.2093 83.649C93.2722 83.649 93.3351 83.6176 93.3351 83.5232V70.4731C93.3351 70.4102 93.3036 70.3473 93.2093 70.3473L91.2911 70.1586C91.2282 70.1586 91.1653 70.1272 91.1653 70.0328V69.4354C91.1653 69.3725 91.1967 69.3096 91.2911 69.3096H96.9828V69.341ZM95.5049 70.4102C95.442 70.4102 95.3791 70.4416 95.3791 70.536V76.9824C95.3791 77.0453 95.4105 77.1082 95.5049 77.1082H96.8256C99.4985 77.1082 100.851 75.9447 100.851 73.5862C100.851 72.4542 100.442 71.6051 99.5929 71.102C98.8696 70.6617 97.8633 70.4102 96.6055 70.4102H95.5049Z" fill="white"/>
<path d="M110.998 69.3397C111.093 69.3397 111.124 69.3712 111.124 69.4655V70.063C111.124 70.1259 111.093 70.1888 110.998 70.1888L108.86 70.3775C108.797 70.3775 108.734 70.4089 108.734 70.5033V75.5346C108.734 75.5975 108.766 75.6604 108.86 75.6604H109.615C110.181 75.6604 110.684 75.6604 111.187 75.6919C111.659 75.6919 112.131 75.7548 112.571 75.8491C113.011 75.9434 113.42 76.0692 113.797 76.2579C114.175 76.4466 114.552 76.6982 114.961 77.0126C115.401 77.39 115.747 77.8302 115.967 78.3333C116.187 78.8679 116.313 79.4025 116.313 80C116.313 80.2201 116.313 80.4402 116.281 80.6604C116.25 80.8805 116.219 81.1321 116.156 81.3522C116.093 81.6038 116.03 81.8239 115.936 82.0126C115.841 82.2327 115.747 82.4214 115.621 82.61C115.432 82.893 115.181 83.1761 114.866 83.4276C114.552 83.6792 114.175 83.8993 113.734 84.0566C113.294 84.2452 112.759 84.371 112.162 84.4968C111.564 84.5911 110.841 84.654 110.055 84.654H104.835C104.772 84.654 104.709 84.6226 104.709 84.5282V83.9308C104.709 83.8364 104.741 83.805 104.835 83.805L106.753 83.6163C106.816 83.6163 106.879 83.5849 106.879 83.4905V70.4404C106.879 70.3775 106.848 70.3146 106.753 70.3146L104.835 70.1259C104.772 70.1259 104.709 70.0945 104.709 70.0001V69.4026C104.709 69.3397 104.741 69.2769 104.835 69.2769H110.998V69.3397ZM108.829 83.5849H109.835C110.558 83.5849 111.156 83.522 111.69 83.3647C112.225 83.2075 112.634 82.9874 112.98 82.7044C113.325 82.4213 113.577 82.044 113.734 81.6352C113.892 81.2264 113.986 80.7547 113.986 80.2516C113.986 79.6226 113.86 79.0566 113.64 78.6164C113.388 78.1761 113.074 77.7988 112.665 77.5157C112.256 77.2327 111.753 77.0126 111.219 76.8868C110.653 76.761 110.087 76.6982 109.426 76.6982H108.829C108.766 76.6982 108.703 76.7296 108.703 76.8239V83.522C108.734 83.5534 108.766 83.5849 108.829 83.5849ZM122.602 69.3397C122.665 69.3397 122.728 69.3712 122.728 69.4655V70.063C122.728 70.1259 122.696 70.1888 122.602 70.1888L120.684 70.3775C120.621 70.3775 120.558 70.4089 120.558 70.5033V83.5534C120.558 83.6163 120.59 83.6792 120.684 83.6792L122.602 83.8679C122.665 83.8679 122.728 83.8993 122.728 83.9937V84.5911C122.728 84.654 122.696 84.7169 122.602 84.7169H116.785C116.69 84.7169 116.659 84.6855 116.659 84.5911V83.9937C116.659 83.8993 116.69 83.8679 116.785 83.8679L118.483 83.6792C118.546 83.6792 118.608 83.6478 118.608 83.5534V70.5033C118.608 70.4404 118.577 70.3775 118.483 70.3775L116.785 70.1888C116.69 70.1888 116.659 70.1573 116.659 70.063V69.4655C116.659 69.4026 116.69 69.3397 116.785 69.3397H122.602Z" fill="white"/>
<path d="M111.665 34.0876C113.772 32.9556 115.345 31.3833 116.602 29.9053C118.992 27.138 121.445 21.006 116.225 14.0879C111.005 7.16973 113.112 3.86788 114.495 3.23896C115.407 2.79871 116.319 2.48425 116.508 3.17606C116.602 3.52197 116.288 4.65403 116.76 5.44019C117.797 7.10683 120.565 6.66659 120.187 4.46536C119.81 2.26412 118.049 1.76099 116.256 1.41508C114.464 1.06917 111.162 2.32702 110.628 6.50936C110.596 6.66659 110.596 6.79237 110.596 6.9496H108.521V4.40246C108.772 4.27668 108.93 4.02511 108.93 3.74209C108.93 3.33329 108.615 3.01883 108.206 3.01883C107.797 3.01883 107.483 3.33329 107.483 3.74209C107.483 4.02511 107.64 4.27668 107.892 4.40246V6.9496H106.634V3.11317C106.886 2.98739 107.043 2.73582 107.043 2.4528C107.043 2.044 106.728 1.72954 106.319 1.72954C105.911 1.72954 105.596 2.044 105.596 2.4528C105.596 2.73582 105.753 2.98739 106.005 3.11317V6.9496H104.842V1.38363C105.093 1.25785 105.25 1.00628 105.25 0.723262C105.25 0.314461 104.936 0 104.527 0C104.118 0 103.804 0.314461 103.804 0.723262C103.804 1.00628 103.961 1.25785 104.213 1.38363V6.98105H103.049V3.11317C103.301 2.98739 103.458 2.73582 103.458 2.4528C103.458 2.044 103.143 1.72954 102.735 1.72954C102.326 1.72954 102.011 2.044 102.011 2.4528C102.011 2.73582 102.169 2.98739 102.42 3.11317V6.98105H101.257V4.40246C101.508 4.27668 101.665 4.02511 101.665 3.74209C101.665 3.33329 101.351 3.01883 100.942 3.01883C100.533 3.01883 100.219 3.33329 100.219 3.74209C100.219 4.02511 100.376 4.27668 100.628 4.40246V6.98105H98.7724C98.7724 6.82382 98.741 6.69803 98.741 6.5408C98.2378 2.32702 94.936 1.10062 93.1121 1.44652C91.2882 1.76099 89.5587 2.29557 89.1813 4.4968C88.804 6.69803 91.5712 7.13828 92.609 5.47163C93.0806 4.68548 92.7662 3.55342 92.8605 3.20751C93.0492 2.51569 93.9611 2.83016 94.8731 3.2704C96.2253 3.93077 98.3636 7.20117 93.1435 14.1193C87.9235 21.0375 90.3763 27.1695 92.7662 29.9368C94.024 31.3833 95.5649 32.987 97.7032 34.1191H86.4141V39.3077H123.017V34.1191H111.665V34.0876ZM100.565 29.6223H99.9674L99.8101 30.5971C98.4265 30.094 97.1687 29.3393 96.1624 28.333C91.8857 23.9305 93.3322 19.7482 94.4957 17.1067C95.1875 15.503 98.2378 11.9495 98.741 8.30179H100.596V29.6223H100.565ZM102.389 29.6223H101.225V8.2389H102.389V29.6223ZM104.213 29.6223H103.049V8.2389H104.213V29.6223ZM106.005 29.6223H104.842V8.2389H106.005V29.6223ZM106.634 8.2389H107.797V29.6223H106.634V8.2389ZM108.741 29.6223H108.458V8.2389H110.596C111.068 11.8867 114.15 15.4401 114.841 17.0438C116.005 19.6853 117.42 23.8991 113.175 28.2701C112.074 29.4022 110.659 30.1883 109.087 30.6915L108.741 29.6223Z" fill="white"/>
</svg>
